# Blender 5.1.1
# www.blender.org
mtllib Mushroom.mtl
o MediumManashroomMesh
v -0.070433 0.552666 -0.030095
v -0.059194 0.533951 0.078930
v -0.080377 0.534597 0.102067
v -0.102409 0.519416 0.109258
v -0.090851 0.516138 0.093519
v -0.076662 0.506909 0.068659
v -0.070528 0.498679 0.053396
v -0.054810 0.517966 0.057269
v 0.008478 0.530705 0.116834
v 0.010340 0.522804 0.160082
v 0.005342 0.493934 0.178813
v 0.003045 0.494434 0.150370
v -0.002051 0.488266 0.106834
v -0.006109 0.480075 0.080989
v 0.001157 0.511690 0.081634
v 0.102928 0.522232 0.067998
v 0.137613 0.509565 0.094311
v 0.145344 0.477472 0.106401
v 0.121186 0.480891 0.089225
v 0.082223 0.478877 0.063123
v 0.057795 0.472946 0.047752
v 0.067405 0.505935 0.047278
v 0.116348 0.510209 -0.053220
v 0.155550 0.492998 -0.065372
v 0.164242 0.459592 -0.061355
v 0.136931 0.466121 -0.051650
v 0.092870 0.469045 -0.034267
v 0.065239 0.466161 -0.022297
v 0.076156 0.498266 -0.034050
v 0.010656 0.517823 -0.121262
v 0.022720 0.510885 -0.164796
v 0.033205 0.481481 -0.183352
v 0.026242 0.481171 -0.154666
v 0.017017 0.473504 -0.110677
v 0.012477 0.464254 -0.084511
v 0.006098 0.497070 -0.085532
v -0.101511 0.505845 -0.095507
v -0.124603 0.495361 -0.130008
v -0.128617 0.465780 -0.144862
v -0.112325 0.468052 -0.122156
v -0.085757 0.464708 -0.087378
v -0.068920 0.458266 -0.066716
v -0.076729 0.489336 -0.067339
v -0.157167 0.492259 0.008709
v -0.195030 0.477864 0.002733
v -0.202380 0.447866 -0.005596
v -0.175809 0.452947 -0.002726
v -0.132673 0.454250 0.000103
v -0.105456 0.450793 0.000761
v -0.117303 0.480211 0.007831
v -0.097633 0.495108 0.121451
v -0.129377 0.488638 0.152794
v -0.150262 0.460305 0.161483
v -0.130702 0.459848 0.139968
v -0.102708 0.452193 0.105706
v -0.087359 0.443105 0.084497
v -0.078933 0.474844 0.091056
v 0.022006 0.476331 0.165067
v 0.022185 0.463258 0.210896
v 0.014743 0.429893 0.225524
v 0.013237 0.433377 0.194420
v 0.008883 0.431163 0.145389
v 0.004960 0.424918 0.115353
v 0.014340 0.459269 0.122546
v 0.156869 0.463361 0.100206
v 0.191750 0.444715 0.129200
v 0.194419 0.407893 0.138745
v 0.169183 0.414849 0.119121
v 0.127167 0.417665 0.088264
v 0.100011 0.414220 0.069410
v 0.116041 0.449789 0.073597
v 0.179924 0.449666 -0.070280
v 0.220743 0.426767 -0.082403
v 0.224080 0.388825 -0.077556
v 0.194588 0.398711 -0.067719
v 0.145541 0.406209 -0.049911
v 0.113872 0.405672 -0.037543
v 0.132362 0.440278 -0.050315
v 0.041752 0.436796 -0.187904
v 0.054216 0.411468 -0.224277
v 0.057515 0.374252 -0.219501
v 0.048930 0.386064 -0.191790
v 0.035218 0.396995 -0.143783
v 0.026704 0.398812 -0.111629
v 0.029508 0.431163 -0.137771
v -0.134723 0.427007 -0.150294
v -0.152377 0.400542 -0.179645
v -0.144414 0.364981 -0.175962
v -0.129923 0.377938 -0.153632
v -0.103490 0.391205 -0.114987
v -0.085020 0.394792 -0.089127
v -0.104746 0.424448 -0.110009
v -0.220624 0.413224 0.008387
v -0.249855 0.384656 0.000860
v -0.236458 0.350435 -0.005623
v -0.212424 0.365191 -0.001267
v -0.168539 0.381824 0.004521
v -0.137850 0.387810 0.007383
v -0.170777 0.414628 0.011290
v -0.151199 0.387871 0.180933
v -0.173719 0.354827 0.192309
v -0.166638 0.321435 0.169036
v -0.148720 0.339645 0.156349
v -0.116708 0.362320 0.129248
v -0.094708 0.372385 0.108140
v -0.116035 0.395685 0.143474
v 0.033427 0.358715 0.236210
v 0.026278 0.320701 0.253640
v 0.015229 0.287833 0.222956
v 0.018462 0.309806 0.204435
v 0.021244 0.338968 0.165672
v 0.021480 0.353360 0.135855
v 0.031292 0.373250 0.183791
v 0.224274 0.337290 0.141031
v 0.228359 0.296082 0.152499
v 0.193669 0.264809 0.133954
v 0.184251 0.289432 0.122071
v 0.159905 0.323462 0.097478
v 0.138962 0.341274 0.078694
v 0.184488 0.357402 0.108185
v 0.256536 0.319821 -0.091506
v 0.261722 0.277407 -0.087789
v 0.221592 0.248980 -0.068930
v 0.210360 0.275018 -0.068190
v 0.181623 0.312131 -0.062359
v 0.157021 0.332373 -0.055827
v 0.209940 0.344284 -0.077281
v 0.071848 0.307698 -0.254032
v 0.075127 0.265502 -0.252041
v 0.064998 0.239786 -0.206362
v 0.060709 0.266163 -0.199398
v 0.050998 0.304508 -0.176529
v 0.043177 0.325946 -0.154977
v 0.057629 0.334598 -0.210834
v -0.168927 0.299318 -0.207968
v -0.163346 0.258062 -0.206447
v -0.133644 0.234859 -0.168862
v -0.132279 0.261008 -0.163046
v -0.122756 0.299578 -0.144085
v -0.112247 0.321525 -0.126257
v -0.146186 0.327562 -0.172280
v -0.269129 0.298030 0.003587
v -0.259481 0.268445 -0.005294
v -0.220515 0.255062 -0.007809
v -0.220438 0.274414 -0.001723
v -0.210844 0.303879 0.007956
v -0.198956 0.321269 0.013939
v -0.242192 0.321539 0.012147
v -0.144755 0.288250 0.193474
v 0.099705 -0.068049 -0.008309
v 0.083088 -0.068049 -0.000000
v 0.070920 -0.068049 0.029376
v 0.058752 -0.068049 0.058752
v 0.067061 -0.068049 0.075369
v 0.008309 -0.068049 0.099705
v 0.000000 -0.068049 0.083088
v -0.029376 -0.068049 0.070920
v -0.058752 -0.068049 0.058752
v -0.075369 -0.068049 0.067061
v -0.099705 -0.068049 0.008309
v -0.083088 -0.068049 0.000000
v -0.070920 -0.068049 -0.029376
v -0.058752 -0.068049 -0.058752
v -0.067061 -0.068049 -0.075369
v -0.008309 -0.068049 -0.099705
v -0.000000 -0.068049 -0.083088
v 0.029376 -0.068049 -0.070920
v 0.058752 -0.068049 -0.058752
v 0.075369 -0.068049 -0.067061
v -0.023856 0.399962 0.023660
v -0.021374 0.399962 0.017935
v -0.024585 0.399962 0.007752
v -0.027796 0.399962 -0.002432
v -0.033520 0.399962 -0.004913
v -0.023660 0.399962 -0.023856
v -0.017935 0.399962 -0.021374
v -0.007752 0.399962 -0.024585
v 0.002432 0.399962 -0.027796
v 0.004913 0.399962 -0.033520
v 0.023856 0.399962 -0.023660
v 0.021374 0.399962 -0.017935
v 0.024585 0.399962 -0.007752
v 0.027796 0.399962 0.002432
v 0.033521 0.399962 0.004913
v 0.023660 0.399962 0.023856
v 0.017935 0.399962 0.021374
v 0.007752 0.399962 0.024585
v -0.002432 0.399962 0.027796
v -0.004913 0.399962 0.033520
v -0.030105 0.370499 0.063400
v -0.029287 0.370499 0.050393
v -0.042814 0.370499 0.032658
v -0.056342 0.370499 0.014924
v -0.069349 0.370499 0.014106
v -0.063400 0.370499 -0.030105
v -0.050393 0.370499 -0.029287
v -0.032658 0.370499 -0.042814
v -0.014924 0.370499 -0.056342
v -0.014106 0.370499 -0.069349
v 0.030105 0.370499 -0.063400
v 0.029287 0.370499 -0.050393
v 0.042814 0.370499 -0.032658
v 0.056342 0.370499 -0.014924
v 0.069349 0.370499 -0.014106
v 0.063400 0.370499 0.030105
v 0.050393 0.370499 0.029287
v 0.032658 0.370499 0.042814
v 0.014924 0.370499 0.056342
v 0.014106 0.370499 0.069349
v -0.016697 0.347221 0.078053
v -0.019201 0.347221 0.063444
v -0.038820 0.347221 0.047364
v -0.058439 0.347221 0.031284
v -0.073048 0.347221 0.033788
v -0.078053 0.347221 -0.016697
v -0.063444 0.347221 -0.019201
v -0.047364 0.347221 -0.038820
v -0.031284 0.347221 -0.058439
v -0.033788 0.347221 -0.073048
v 0.016697 0.347221 -0.078053
v 0.019201 0.347221 -0.063444
v 0.038820 0.347221 -0.047364
v 0.058439 0.347221 -0.031284
v 0.073048 0.347221 -0.033788
v 0.078053 0.347221 0.016697
v 0.063444 0.347221 0.019201
v 0.047364 0.347221 0.038820
v 0.031284 0.347221 0.058439
v 0.033788 0.347221 0.073048
v -0.002788 0.323948 0.082163
v -0.007974 0.323948 0.067805
v -0.030779 0.323948 0.055056
v -0.053584 0.323948 0.042307
v -0.067942 0.323948 0.047492
v -0.082163 0.323948 -0.002788
v -0.067805 0.323948 -0.007974
v -0.055056 0.323948 -0.030779
v -0.042307 0.323948 -0.053584
v -0.047492 0.323948 -0.067942
v 0.002788 0.323948 -0.082163
v 0.007974 0.323948 -0.067805
v 0.030779 0.323948 -0.055056
v 0.053584 0.323948 -0.042307
v 0.067942 0.323948 -0.047492
v 0.082163 0.323948 0.002788
v 0.067805 0.323948 0.007974
v 0.055056 0.323948 0.030779
v 0.042307 0.323948 0.053584
v 0.047492 0.323948 0.067942
v 0.009731 0.298931 0.083362
v 0.002304 0.298931 0.069661
v -0.022662 0.298931 0.060274
v -0.047628 0.298931 0.050887
v -0.061330 0.298931 0.058314
v -0.083362 0.298931 0.009731
v -0.069661 0.298931 0.002304
v -0.060274 0.298931 -0.022662
v -0.050887 0.298931 -0.047628
v -0.058314 0.298931 -0.061330
v -0.009731 0.298931 -0.083362
v -0.002304 0.298931 -0.069661
v 0.022662 0.298931 -0.060274
v 0.047628 0.298931 -0.050887
v 0.061330 0.298931 -0.058314
v 0.083363 0.298931 -0.009731
v 0.069661 0.298931 -0.002304
v 0.060274 0.298931 0.022662
v 0.050887 0.298931 0.047628
v 0.058314 0.298931 0.061330
v 0.020695 0.272901 0.081256
v 0.011523 0.272901 0.068673
v -0.014444 0.272901 0.062690
v -0.040411 0.272901 0.056707
v -0.052994 0.272901 0.065879
v -0.081256 0.272901 0.020695
v -0.068673 0.272901 0.011523
v -0.062690 0.272901 -0.014444
v -0.056707 0.272901 -0.040411
v -0.065879 0.272901 -0.052994
v -0.020695 0.272901 -0.081256
v -0.011523 0.272901 -0.068673
v 0.014444 0.272901 -0.062690
v 0.040411 0.272901 -0.056707
v 0.052994 0.272901 -0.065879
v 0.081256 0.272901 -0.020695
v 0.068673 0.272901 -0.011523
v 0.062690 0.272901 0.014444
v 0.056707 0.272901 0.040411
v 0.065879 0.272901 0.052994
v 0.030039 0.245699 0.076900
v 0.019556 0.245699 0.065713
v -0.006541 0.245699 0.063004
v -0.032638 0.245699 0.060295
v -0.043825 0.245699 0.070778
v -0.076900 0.245699 0.030039
v -0.065713 0.245699 0.019556
v -0.063004 0.245699 -0.006541
v -0.060295 0.245699 -0.032638
v -0.070778 0.245699 -0.043825
v -0.030039 0.245699 -0.076900
v -0.019556 0.245699 -0.065713
v 0.006541 0.245699 -0.063004
v 0.032638 0.245699 -0.060295
v 0.043825 0.245699 -0.070778
v 0.076901 0.245699 -0.030039
v 0.065713 0.245699 -0.019556
v 0.063004 0.245699 0.006541
v 0.060295 0.245699 0.032638
v 0.070778 0.245699 0.043825
v 0.039691 0.215686 0.074052
v 0.027741 0.215686 0.064022
v 0.001043 0.215686 0.064454
v -0.025655 0.215686 0.064886
v -0.035685 0.215686 0.076836
v -0.074052 0.215686 0.039691
v -0.064022 0.215686 0.027741
v -0.064454 0.215686 0.001043
v -0.064886 0.215686 -0.025655
v -0.076836 0.215686 -0.035685
v -0.039691 0.215686 -0.074052
v -0.027741 0.215686 -0.064022
v -0.001043 0.215686 -0.064454
v 0.025655 0.215686 -0.064886
v 0.035685 0.215686 -0.076836
v 0.074052 0.215686 -0.039691
v 0.064022 0.215686 -0.027741
v 0.064454 0.215686 -0.001043
v 0.064886 0.215686 0.025655
v 0.076836 0.215686 0.035685
v 0.053962 0.180519 0.076387
v 0.039390 0.180519 0.066939
v 0.009955 0.180519 0.071062
v -0.019480 0.180519 0.075186
v -0.028928 0.180519 0.089758
v -0.076387 0.180519 0.053962
v -0.066939 0.180519 0.039390
v -0.071062 0.180519 0.009955
v -0.075186 0.180519 -0.019480
v -0.089758 0.180519 -0.028928
v -0.053962 0.180519 -0.076387
v -0.039390 0.180519 -0.066939
v -0.009955 0.180519 -0.071062
v 0.019480 0.180519 -0.075186
v 0.028928 0.180519 -0.089758
v 0.076387 0.180519 -0.053962
v 0.066939 0.180519 -0.039390
v 0.071062 0.180519 -0.009955
v 0.075186 0.180519 0.019480
v 0.089758 0.180519 0.028928
v 0.075881 0.139507 0.081746
v 0.057160 0.139507 0.072885
v 0.023021 0.139507 0.082420
v -0.011119 0.139507 0.091956
v -0.019980 0.139507 0.110677
v -0.081746 0.139507 0.075881
v -0.072885 0.139507 0.057160
v -0.082420 0.139507 0.023021
v -0.091956 0.139507 -0.011119
v -0.110677 0.139507 -0.019980
v -0.075881 0.139507 -0.081746
v -0.057160 0.139507 -0.072885
v -0.023021 0.139507 -0.082420
v 0.011119 0.139507 -0.091956
v 0.019980 0.139507 -0.110677
v 0.081746 0.139507 -0.075881
v 0.072885 0.139507 -0.057160
v 0.082420 0.139507 -0.023021
v 0.091956 0.139507 0.011119
v 0.110676 0.139507 0.019980
v 0.102973 0.094395 0.081993
v 0.079564 0.094395 0.074958
v 0.041410 0.094395 0.092111
v 0.003257 0.094395 0.109263
v -0.003778 0.094395 0.132672
v -0.081993 0.094395 0.102973
v -0.074958 0.094395 0.079564
v -0.092111 0.094395 0.041411
v -0.109263 0.094395 0.003257
v -0.132672 0.094395 -0.003778
v -0.102973 0.094395 -0.081993
v -0.079564 0.094395 -0.074958
v -0.041411 0.094395 -0.092111
v -0.003257 0.094395 -0.109263
v 0.003778 0.094395 -0.132672
v 0.081993 0.094395 -0.102973
v 0.074958 0.094395 -0.079564
v 0.092111 0.094395 -0.041411
v 0.109263 0.094395 -0.003257
v 0.132672 0.094395 0.003778
v 0.124785 0.048138 0.067465
v 0.098618 0.048138 0.064439
v 0.061393 0.048138 0.089869
v 0.024168 0.048138 0.115299
v 0.021142 0.048138 0.141466
v -0.067465 0.048138 0.124785
v -0.064439 0.048138 0.098618
v -0.089869 0.048138 0.061393
v -0.115299 0.048138 0.024168
v -0.141466 0.048138 0.021142
v -0.124785 0.048138 -0.067465
v -0.098618 0.048138 -0.064439
v -0.061393 0.048138 -0.089869
v -0.024168 0.048138 -0.115299
v -0.021142 0.048138 -0.141466
v 0.067465 0.048138 -0.124785
v 0.064439 0.048138 -0.098618
v 0.089869 0.048138 -0.061393
v 0.115298 0.048138 -0.024168
v 0.141466 0.048138 -0.021142
v 0.127850 -0.001928 0.034431
v 0.103432 -0.001928 0.037312
v 0.075093 -0.001928 0.068416
v 0.046754 -0.001928 0.099521
v 0.049635 -0.001928 0.123939
v -0.034431 -0.001928 0.127850
v -0.037312 -0.001928 0.103432
v -0.068416 -0.001928 0.075093
v -0.099521 -0.001928 0.046754
v -0.123939 -0.001928 0.049635
v -0.127850 -0.001928 -0.034431
v -0.103432 -0.001928 -0.037312
v -0.075093 -0.001928 -0.068416
v -0.046754 -0.001928 -0.099521
v -0.049635 -0.001928 -0.123939
v 0.034431 -0.001928 -0.127850
v 0.037312 -0.001928 -0.103432
v 0.068416 -0.001928 -0.075093
v 0.099521 -0.001928 -0.046754
v 0.123939 -0.001928 -0.049635
vn 0.9558 -0.1714 -0.2390
vn 0.3074 0.9492 -0.0676
vn 0.7900 0.1341 -0.5982
vn -0.1894 0.9747 0.1190
vn -0.2909 0.8962 0.3349
vn -0.4652 0.7684 0.4395
vn -0.8360 -0.4809 -0.2644
vn -0.4995 -0.8585 -0.1159
vn -0.3559 -0.9310 -0.0809
vn -0.6661 -0.7458 -0.0084
vn -0.7728 -0.6335 0.0385
vn 0.6358 -0.3635 -0.6809
vn 0.0908 0.9929 -0.0764
vn 0.0294 0.5797 -0.8143
vn 0.0938 0.7868 0.6100
vn 0.0716 0.5686 0.8195
vn -0.1768 -0.9828 0.0525
vn -0.1724 -0.9850 -0.0027
vn -0.1763 -0.9606 0.2148
vn -0.1786 -0.9310 0.3184
vn -0.0308 0.0147 -0.9994
vn 0.1035 0.9928 -0.0606
vn -0.5244 0.7274 -0.4425
vn 0.6507 0.6794 0.3391
vn 0.7799 0.3814 0.4963
vn -0.1167 -0.9911 0.0637
vn -0.1618 -0.9863 0.0333
vn 0.0161 -0.9885 0.1501
vn 0.1028 -0.9731 0.2064
vn -0.7801 0.2201 -0.5857
vn 0.1170 0.9920 -0.0480
vn -0.5906 0.7695 0.2432
vn 0.7095 0.6362 -0.3030
vn 0.9018 0.3309 -0.2778
vn -0.1256 -0.9916 0.0317
vn -0.1824 -0.9821 0.0478
vn 0.0466 -0.9989 -0.0091
vn 0.1630 -0.9864 -0.0208
vn -0.9208 0.2640 0.2870
vn -0.0135 0.9989 0.0456
vn -0.1675 0.6566 0.7354
vn 0.1327 0.7502 -0.6477
vn 0.2659 0.4467 -0.8543
vn -0.0147 -0.9994 -0.0311
vn -0.0296 -0.9994 0.0170
vn 0.0385 -0.9855 -0.1653
vn 0.0900 -0.9662 -0.2416
vn -0.2966 0.1509 0.9430
vn -0.1016 0.9925 0.0686
vn 0.3828 0.6775 0.6281
vn -0.5022 0.7106 -0.4927
vn -0.5794 0.4248 -0.6956
vn 0.1065 -0.9931 -0.0499
vn 0.1417 -0.9899 -0.0032
vn 0.0034 -0.9847 -0.1742
vn -0.0625 -0.9655 -0.2527
vn 0.5599 0.1573 0.8135
vn -0.0758 0.9968 0.0237
vn 0.6908 0.7208 0.0573
vn -0.7324 0.6808 -0.0129
vn -0.9140 0.3877 -0.1198
vn 0.0848 -0.9963 -0.0118
vn 0.1482 -0.9890 -0.0003
vn -0.0917 -0.9945 -0.0507
vn -0.1998 -0.9759 -0.0876
vn 0.9713 0.1939 0.1378
vn 0.0747 0.9971 -0.0123
vn 0.5413 0.6461 -0.5381
vn -0.4103 0.7626 0.5001
vn -0.6498 0.4712 0.5964
vn -0.0584 -0.9983 -0.0056
vn -0.0247 -0.9987 -0.0442
vn -0.1804 -0.9804 0.0797
vn -0.2679 -0.9565 0.1151
vn 0.7392 0.1267 -0.6614
vn 0.1323 0.9908 0.0270
vn 0.0397 0.6933 -0.7196
vn 0.1444 0.6790 0.7198
vn 0.0821 0.3835 0.9199
vn -0.1532 -0.9870 -0.0484
vn -0.1567 -0.9817 -0.1080
vn -0.1434 -0.9831 0.1141
vn -0.1387 -0.9667 0.2149
vn -0.0099 0.2049 -0.9787
vn 0.1872 0.9823 0.0089
vn -0.4175 0.8196 -0.3924
vn 0.7031 0.5739 0.4198
vn 0.7964 0.2105 0.5670
vn -0.1933 -0.9811 -0.0026
vn -0.2370 -0.9709 -0.0352
vn -0.0631 -0.9941 0.0878
vn 0.0221 -0.9890 0.1461
vn -0.7103 0.3924 -0.5844
vn 0.2056 0.9632 -0.1732
vn -0.4574 0.8837 0.0991
vn 0.8069 0.4652 -0.3641
vn 0.9387 0.0392 -0.3424
vn -0.2016 -0.9647 0.1697
vn -0.2543 -0.9490 0.1863
vn -0.0521 -0.9923 0.1120
vn 0.0449 -0.9963 0.0732
vn -0.8128 0.5284 0.2452
vn 0.0118 0.9425 -0.3340
vn -0.1548 0.9195 0.3613
vn 0.1950 0.3744 -0.9065
vn 0.2642 -0.1006 -0.9592
vn -0.0188 -0.9444 0.3282
vn -0.0384 -0.9229 0.3832
vn 0.0205 -0.9851 0.1709
vn 0.0441 -0.9965 0.0704
vn -0.2456 0.6221 0.7434
vn -0.2882 0.9206 -0.2637
vn 0.1412 0.9436 0.2993
vn -0.5922 0.3036 -0.7465
vn -0.5639 -0.2085 -0.7991
vn 0.2800 -0.9226 0.2653
vn 0.3106 -0.8956 0.3186
vn 0.1812 -0.9743 0.1342
vn 0.1176 -0.9916 0.0529
vn 0.3853 0.6880 0.6149
vn -0.4729 0.8767 0.0880
vn 0.2272 0.9662 0.1222
vn -0.9794 0.1999 -0.0287
vn -0.9330 -0.3388 -0.1210
vn 0.4672 -0.8798 -0.0882
vn 0.5295 -0.8453 -0.0716
vn 0.3003 -0.9484 -0.1020
vn 0.1949 -0.9748 -0.1082
vn 0.6369 0.7591 0.1349
vn -0.2971 0.7888 0.5380
vn 0.1760 0.9840 0.0289
vn -0.6721 0.0210 0.7402
vn -0.6624 -0.5192 0.5400
vn 0.2863 -0.7927 -0.5383
vn 0.3451 -0.7452 -0.5705
vn 0.1618 -0.8917 -0.4227
vn 0.0840 -0.9340 -0.3473
vn 0.4471 0.8477 -0.2856
vn 0.1692 0.6880 0.7057
vn 0.1304 0.9914 0.0065
vn 0.0595 -0.1587 0.9855
vn -0.0515 -0.6679 0.7424
vn -0.1753 -0.6817 -0.7104
vn -0.1594 -0.6135 -0.7734
vn -0.1771 -0.8187 -0.5462
vn -0.1750 -0.8791 -0.4433
vn 0.0842 0.9124 -0.4005
vn 0.6956 0.5909 0.4086
vn 0.1728 0.9850 0.0015
vn 0.7579 -0.2834 0.5876
vn 0.4551 -0.7754 0.4378
vn -0.6947 -0.5914 -0.4095
vn -0.7255 -0.5092 -0.4630
vn -0.5736 -0.7598 -0.3061
vn -0.4901 -0.8387 -0.2373
vn -0.1766 0.9545 -0.2403
vn 0.7971 0.4958 -0.3446
vn 0.1890 0.9711 -0.1461
vn 0.8742 -0.3919 -0.2869
vn 0.5308 -0.8384 -0.1238
vn -0.8052 -0.4836 0.3433
vn -0.8602 -0.3830 0.3368
vn -0.6638 -0.6829 0.3049
vn -0.5626 -0.7787 0.2776
vn -0.2157 0.9764 0.0077
vn 0.2122 0.4287 -0.8782
vn 0.0281 0.9581 -0.2851
vn 0.2595 -0.4665 -0.8456
vn 0.1703 -0.8744 -0.4543
vn -0.2223 -0.3992 0.8895
vn -0.2530 -0.2841 0.9248
vn -0.1780 -0.6194 0.7646
vn -0.1445 -0.7257 0.6727
vn -0.0844 0.9877 0.1314
vn -0.5834 0.3629 -0.7266
vn -0.2356 0.9409 -0.2433
vn -0.5010 -0.5408 -0.6757
vn -0.2439 -0.9126 -0.3281
vn 0.5565 -0.3285 0.7632
vn 0.5432 -0.2098 0.8130
vn 0.4852 -0.5648 0.6675
vn 0.4348 -0.6788 0.5918
vn 0.0230 0.9950 0.0969
vn -0.9698 0.2287 0.0852
vn -0.4313 0.8917 0.1376
vn -0.7848 -0.6197 0.0011
vn -0.3681 -0.9285 0.0495
vn 0.9833 -0.1714 0.0614
vn 0.9799 -0.0623 0.1895
vn 0.8921 -0.4494 0.0471
vn 0.8159 -0.5780 0.0143
vn 0.0264 0.9934 0.1121
vn -0.7509 0.1823 0.6347
vn 0.9140 -0.1976 -0.3544
vn -0.0000 -1.0000 -0.0000
vn -0.0000 1.0000 -0.0000
vn -0.1561 0.7660 0.6236
vn -0.9846 0.0241 -0.1734
vn -0.9871 -0.1218 -0.1036
vn -0.9459 -0.3244 0.0007
vn -0.6108 0.7020 0.3662
vn -0.6648 0.5267 0.5298
vn -0.6435 0.6611 0.3858
vn -0.5916 0.7240 0.3547
vn -0.6338 0.5979 0.4908
vn -0.1356 0.6235 0.7700
vn -0.0122 0.6152 0.7883
vn -0.0610 0.6196 0.7825
vn -0.6236 0.7660 -0.1561
vn 0.1734 0.0241 -0.9846
vn 0.1036 -0.1218 -0.9871
vn -0.0007 -0.3244 -0.9459
vn -0.3662 0.7020 -0.6108
vn -0.5298 0.5267 -0.6648
vn -0.3858 0.6611 -0.6435
vn -0.3547 0.7240 -0.5916
vn -0.4908 0.5979 -0.6338
vn -0.7700 0.6235 -0.1356
vn -0.7883 0.6152 -0.0122
vn -0.7825 0.6196 -0.0610
vn 0.1561 0.7660 -0.6236
vn 0.9846 0.0241 0.1734
vn 0.9871 -0.1218 0.1036
vn 0.9459 -0.3244 -0.0007
vn 0.6108 0.7020 -0.3662
vn 0.6648 0.5267 -0.5298
vn 0.6435 0.6611 -0.3858
vn 0.5916 0.7240 -0.3547
vn 0.6338 0.5979 -0.4908
vn 0.1356 0.6235 -0.7700
vn 0.0122 0.6152 -0.7883
vn 0.0610 0.6196 -0.7825
vn 0.6236 0.7660 0.1561
vn -0.1734 0.0241 0.9846
vn -0.1036 -0.1218 0.9871
vn 0.0007 -0.3244 0.9459
vn 0.3662 0.7020 0.6108
vn 0.5298 0.5267 0.6648
vn 0.3858 0.6611 0.6435
vn 0.3547 0.7240 0.5916
vn 0.4908 0.5979 0.6338
vn 0.7700 0.6235 0.1356
vn 0.7883 0.6152 0.0122
vn 0.7825 0.6196 0.0610
vn -0.0093 0.3610 0.9325
vn 0.0600 0.2697 0.9611
vn 0.1299 0.1726 0.9764
vn -0.8955 -0.4273 0.1241
vn -0.8873 -0.4288 0.1697
vn -0.6284 0.1897 0.7545
vn -0.6126 0.0521 0.7887
vn -0.7001 0.1974 0.6862
vn -0.6227 0.3186 0.7146
vn 0.1406 0.5514 0.8223
vn 0.1350 0.5550 0.8208
vn -0.9325 0.3610 -0.0093
vn -0.9611 0.2697 0.0600
vn -0.9764 0.1726 0.1299
vn -0.1241 -0.4273 -0.8955
vn -0.1697 -0.4288 -0.8873
vn -0.7545 0.1897 -0.6284
vn -0.7887 0.0521 -0.6126
vn -0.6862 0.1974 -0.7001
vn -0.7146 0.3186 -0.6227
vn -0.8223 0.5514 0.1406
vn -0.8208 0.5550 0.1350
vn 0.0093 0.3610 -0.9325
vn -0.0600 0.2697 -0.9611
vn -0.1299 0.1726 -0.9764
vn 0.8955 -0.4273 -0.1241
vn 0.8873 -0.4288 -0.1697
vn 0.6284 0.1897 -0.7545
vn 0.6126 0.0521 -0.7887
vn 0.7001 0.1974 -0.6862
vn 0.6227 0.3186 -0.7146
vn -0.1406 0.5514 -0.8223
vn -0.1350 0.5550 -0.8208
vn 0.9325 0.3610 0.0093
vn 0.9611 0.2697 -0.0600
vn 0.9764 0.1726 -0.1299
vn 0.1241 -0.4273 0.8955
vn 0.1697 -0.4288 0.8873
vn 0.7545 0.1897 0.6284
vn 0.7887 0.0521 0.6126
vn 0.6862 0.1974 0.7001
vn 0.7146 0.3186 0.6227
vn 0.8223 0.5514 -0.1406
vn 0.8208 0.5550 -0.1350
vn 0.2438 0.0790 0.9666
vn 0.2922 0.0695 0.9538
vn -0.8660 -0.4029 0.2962
vn -0.8622 -0.3923 0.3206
vn -0.4919 0.0615 0.8685
vn -0.4729 -0.0235 0.8808
vn -0.5025 0.1580 0.8500
vn 0.2967 0.4576 0.8382
vn 0.3021 0.4548 0.8378
vn -0.9666 0.0790 0.2438
vn -0.9538 0.0695 0.2922
vn -0.2962 -0.4029 -0.8660
vn -0.3206 -0.3923 -0.8622
vn -0.8685 0.0615 -0.4919
vn -0.8808 -0.0235 -0.4729
vn -0.8500 0.1580 -0.5025
vn -0.8382 0.4576 0.2967
vn -0.8378 0.4548 0.3021
vn -0.2438 0.0790 -0.9666
vn -0.2922 0.0695 -0.9538
vn 0.8660 -0.4029 -0.2962
vn 0.8622 -0.3923 -0.3206
vn 0.4919 0.0615 -0.8685
vn 0.4729 -0.0235 -0.8808
vn 0.5025 0.1580 -0.8500
vn -0.2967 0.4576 -0.8382
vn -0.3021 0.4548 -0.8378
vn 0.9666 0.0790 -0.2438
vn 0.9538 0.0695 -0.2922
vn 0.2962 -0.4029 0.8660
vn 0.3206 -0.3923 0.8622
vn 0.8685 0.0615 0.4919
vn 0.8808 -0.0235 0.4729
vn 0.8500 0.1580 0.5025
vn 0.8382 0.4576 -0.2967
vn 0.8378 0.4548 -0.3021
vn 0.3930 0.0338 0.9189
vn 0.4271 0.0160 0.9041
vn -0.8276 -0.3533 0.4363
vn -0.8211 -0.3503 0.4507
vn -0.3554 0.0230 0.9344
vn -0.3401 -0.0534 0.9389
vn -0.3668 0.1053 0.9243
vn 0.4342 0.3867 0.8136
vn 0.4408 0.3834 0.8116
vn -0.9189 0.0338 0.3930
vn -0.9041 0.0160 0.4271
vn -0.4363 -0.3533 -0.8276
vn -0.4507 -0.3503 -0.8211
vn -0.9344 0.0230 -0.3554
vn -0.9389 -0.0534 -0.3401
vn -0.9243 0.1053 -0.3668
vn -0.8136 0.3867 0.4342
vn -0.8116 0.3834 0.4408
vn -0.3930 0.0338 -0.9189
vn -0.4271 0.0160 -0.9041
vn 0.8276 -0.3533 -0.4363
vn 0.8211 -0.3503 -0.4507
vn 0.3554 0.0230 -0.9344
vn 0.3401 -0.0534 -0.9389
vn 0.3668 0.1053 -0.9243
vn -0.4342 0.3867 -0.8136
vn -0.4408 0.3834 -0.8116
vn 0.9189 0.0338 -0.3930
vn 0.9041 0.0160 -0.4271
vn 0.4363 -0.3533 0.8276
vn 0.4507 -0.3503 0.8211
vn 0.9344 0.0230 0.3554
vn 0.9389 -0.0534 0.3401
vn 0.9243 0.1053 0.3668
vn 0.8136 0.3867 -0.4342
vn 0.8116 0.3834 -0.4408
vn 0.5150 -0.0246 0.8568
vn 0.5400 -0.0342 0.8409
vn -0.7675 -0.3282 0.5507
vn -0.7625 -0.3263 0.5587
vn -0.2272 -0.0210 0.9736
vn -0.2148 -0.0856 0.9729
vn -0.2388 0.0487 0.9698
vn 0.5504 0.3308 0.7666
vn 0.5585 0.3271 0.7623
vn -0.8568 -0.0246 0.5150
vn -0.8409 -0.0342 0.5400
vn -0.5507 -0.3282 -0.7675
vn -0.5587 -0.3263 -0.7625
vn -0.9736 -0.0210 -0.2272
vn -0.9729 -0.0856 -0.2148
vn -0.9698 0.0487 -0.2388
vn -0.7666 0.3308 0.5504
vn -0.7623 0.3271 0.5585
vn -0.5150 -0.0246 -0.8568
vn -0.5400 -0.0342 -0.8409
vn 0.7675 -0.3282 -0.5507
vn 0.7625 -0.3263 -0.5587
vn 0.2272 -0.0210 -0.9736
vn 0.2148 -0.0856 -0.9729
vn 0.2388 0.0487 -0.9698
vn -0.5504 0.3308 -0.7666
vn -0.5585 0.3271 -0.7623
vn 0.8568 -0.0246 -0.5150
vn 0.8409 -0.0342 -0.5400
vn 0.5507 -0.3282 0.7675
vn 0.5587 -0.3263 0.7625
vn 0.9736 -0.0210 0.2272
vn 0.9729 -0.0856 0.2148
vn 0.9698 0.0487 0.2388
vn 0.7666 0.3308 -0.5504
vn 0.7623 0.3271 -0.5585
vn 0.6199 -0.0135 0.7846
vn 0.6395 0.0055 0.7687
vn -0.7026 -0.2862 0.6515
vn -0.6972 -0.2810 0.6595
vn -0.1041 -0.0007 0.9946
vn -0.0935 -0.0488 0.9944
vn -0.1141 0.0511 0.9922
vn 0.6498 0.2985 0.6990
vn 0.6547 0.2978 0.6948
vn -0.7846 -0.0135 0.6199
vn -0.7687 0.0055 0.6395
vn -0.6515 -0.2862 -0.7026
vn -0.6595 -0.2810 -0.6972
vn -0.9946 -0.0007 -0.1041
vn -0.9944 -0.0488 -0.0935
vn -0.9922 0.0511 -0.1141
vn -0.6990 0.2985 0.6498
vn -0.6948 0.2978 0.6547
vn -0.6199 -0.0135 -0.7846
vn -0.6395 0.0055 -0.7687
vn 0.7026 -0.2862 -0.6515
vn 0.6972 -0.2810 -0.6595
vn 0.1041 -0.0007 -0.9946
vn 0.0935 -0.0488 -0.9944
vn 0.1141 0.0511 -0.9922
vn -0.6498 0.2985 -0.6990
vn -0.6547 0.2978 -0.6948
vn 0.7846 -0.0135 -0.6199
vn 0.7687 0.0055 -0.6395
vn 0.6515 -0.2862 0.7026
vn 0.6595 -0.2810 0.6972
vn 0.9946 -0.0007 0.1041
vn 0.9944 -0.0488 0.0935
vn 0.9922 0.0511 0.1141
vn 0.6990 0.2985 -0.6498
vn 0.6948 0.2978 -0.6547
vn 0.7070 0.1290 0.6953
vn 0.7188 0.1674 0.6748
vn -0.6330 -0.2113 0.7448
vn -0.6205 -0.1967 0.7591
vn 0.0181 0.1203 0.9926
vn 0.0298 0.0869 0.9958
vn 0.0105 0.1605 0.9870
vn 0.7313 0.3096 0.6078
vn 0.7291 0.3085 0.6109
vn -0.6953 0.1290 0.7070
vn -0.6748 0.1674 0.7188
vn -0.7448 -0.2113 -0.6330
vn -0.7591 -0.1967 -0.6205
vn -0.9926 0.1203 0.0181
vn -0.9958 0.0869 0.0298
vn -0.9870 0.1605 0.0105
vn -0.6078 0.3096 0.7313
vn -0.6109 0.3085 0.7291
vn -0.7070 0.1290 -0.6953
vn -0.7188 0.1674 -0.6748
vn 0.6330 -0.2113 -0.7448
vn 0.6205 -0.1967 -0.7591
vn -0.0181 0.1203 -0.9926
vn -0.0298 0.0869 -0.9958
vn -0.0105 0.1605 -0.9870
vn -0.7313 0.3096 -0.6078
vn -0.7291 0.3085 -0.6109
vn 0.6953 0.1290 -0.7070
vn 0.6748 0.1674 -0.7188
vn 0.7448 -0.2113 0.6330
vn 0.7591 -0.1967 0.6205
vn 0.9926 0.1203 -0.0181
vn 0.9958 0.0869 -0.0298
vn 0.9870 0.1605 -0.0105
vn 0.6078 0.3096 -0.7313
vn 0.6109 0.3085 -0.7291
vn 0.7583 0.3079 0.5745
vn 0.7650 0.3328 0.5514
vn -0.5456 -0.1395 0.8263
vn -0.5195 -0.1285 0.8448
vn 0.1395 0.2627 0.9547
vn 0.1545 0.2288 0.9611
vn 0.1327 0.3026 0.9439
vn 0.7923 0.3552 0.4961
vn 0.7859 0.3485 0.5108
vn -0.5745 0.3079 0.7583
vn -0.5514 0.3328 0.7650
vn -0.8263 -0.1395 -0.5456
vn -0.8448 -0.1285 -0.5195
vn -0.9547 0.2627 0.1395
vn -0.9611 0.2288 0.1545
vn -0.9439 0.3026 0.1327
vn -0.4961 0.3552 0.7923
vn -0.5108 0.3485 0.7859
vn -0.7583 0.3079 -0.5745
vn -0.7650 0.3328 -0.5514
vn 0.5456 -0.1395 -0.8263
vn 0.5195 -0.1285 -0.8448
vn -0.1395 0.2627 -0.9547
vn -0.1545 0.2288 -0.9611
vn -0.1327 0.3026 -0.9439
vn -0.7923 0.3552 -0.4961
vn -0.7859 0.3485 -0.5108
vn 0.5745 0.3079 -0.7583
vn 0.5514 0.3328 -0.7650
vn 0.8263 -0.1395 0.5456
vn 0.8448 -0.1285 0.5195
vn 0.9547 0.2627 -0.1395
vn 0.9611 0.2288 -0.1545
vn 0.9439 0.3026 -0.1327
vn 0.4961 0.3552 -0.7923
vn 0.5108 0.3485 -0.7859
vn 0.8044 0.3858 0.4518
vn 0.8166 0.3866 0.4286
vn -0.4325 -0.1322 0.8919
vn -0.3941 -0.1485 0.9070
vn 0.2636 0.3242 0.9085
vn 0.2844 0.2714 0.9195
vn 0.2534 0.3703 0.8937
vn 0.8344 0.4069 0.3719
vn 0.8287 0.3987 0.3928
vn -0.4518 0.3858 0.8044
vn -0.4286 0.3866 0.8166
vn -0.8919 -0.1322 -0.4325
vn -0.9070 -0.1485 -0.3941
vn -0.9085 0.3242 0.2636
vn -0.9195 0.2714 0.2844
vn -0.8937 0.3703 0.2534
vn -0.3719 0.4069 0.8344
vn -0.3928 0.3987 0.8287
vn -0.8044 0.3858 -0.4518
vn -0.8166 0.3866 -0.4286
vn 0.4325 -0.1322 -0.8919
vn 0.3941 -0.1485 -0.9070
vn -0.2636 0.3242 -0.9085
vn -0.2844 0.2714 -0.9195
vn -0.2534 0.3703 -0.8937
vn -0.8344 0.4069 -0.3719
vn -0.8287 0.3987 -0.3928
vn 0.4518 0.3858 -0.8044
vn 0.4286 0.3866 -0.8166
vn 0.8919 -0.1322 0.4325
vn 0.9070 -0.1485 0.3941
vn 0.9085 0.3242 -0.2636
vn 0.9195 0.2714 -0.2844
vn 0.8937 0.3703 -0.2534
vn 0.3719 0.4069 -0.8344
vn 0.3928 0.3987 -0.8287
vn 0.8863 0.3152 0.3392
vn 0.9131 0.2675 0.3076
vn -0.2880 -0.2326 0.9290
vn -0.2465 -0.2754 0.9292
vn 0.4081 0.2516 0.8776
vn 0.4354 0.1550 0.8868
vn 0.3888 0.3227 0.8629
vn 0.8622 0.4460 0.2402
vn 0.8599 0.4428 0.2539
vn -0.3392 0.3152 0.8863
vn -0.3076 0.2675 0.9131
vn -0.9290 -0.2326 -0.2880
vn -0.9292 -0.2754 -0.2465
vn -0.8776 0.2516 0.4081
vn -0.8868 0.1550 0.4354
vn -0.8629 0.3227 0.3888
vn -0.2402 0.4460 0.8622
vn -0.2539 0.4428 0.8599
vn -0.8863 0.3152 -0.3392
vn -0.9131 0.2675 -0.3076
vn 0.2880 -0.2326 -0.9290
vn 0.2465 -0.2754 -0.9292
vn -0.4081 0.2516 -0.8776
vn -0.4354 0.1550 -0.8868
vn -0.3888 0.3227 -0.8629
vn -0.8622 0.4460 -0.2402
vn -0.8599 0.4428 -0.2539
vn 0.3392 0.3152 -0.8863
vn 0.3076 0.2675 -0.9131
vn 0.9290 -0.2326 0.2880
vn 0.9292 -0.2754 0.2465
vn 0.8776 0.2516 -0.4081
vn 0.8868 0.1550 -0.4354
vn 0.8629 0.3227 -0.3888
vn 0.2402 0.4460 -0.8622
vn 0.2539 0.4428 -0.8599
vn 0.9768 0.0707 0.2022
vn 0.9885 -0.0532 0.1413
vn -0.1062 -0.4177 0.9023
vn -0.0831 -0.4404 0.8940
vn 0.5753 0.0166 0.8178
vn 0.5906 -0.1201 0.7980
vn 0.5490 0.1410 0.8238
vn 0.8832 0.4586 0.0978
vn 0.8849 0.4582 0.0836
vn -0.2022 0.0707 0.9768
vn -0.1413 -0.0532 0.9885
vn -0.9023 -0.4177 -0.1062
vn -0.8940 -0.4404 -0.0831
vn -0.8178 0.0166 0.5753
vn -0.7980 -0.1201 0.5906
vn -0.8238 0.1410 0.5490
vn -0.0978 0.4586 0.8832
vn -0.0836 0.4582 0.8849
vn -0.9768 0.0707 -0.2022
vn -0.9885 -0.0532 -0.1413
vn 0.1062 -0.4178 -0.9023
vn 0.0831 -0.4404 -0.8940
vn -0.5753 0.0166 -0.8178
vn -0.5906 -0.1201 -0.7980
vn -0.5490 0.1410 -0.8238
vn -0.8832 0.4586 -0.0978
vn -0.8849 0.4582 -0.0836
vn 0.2022 0.0707 -0.9768
vn 0.1413 -0.0532 -0.9885
vn 0.9023 -0.4178 0.1062
vn 0.8940 -0.4404 0.0831
vn 0.8178 0.0166 -0.5753
vn 0.7980 -0.1201 -0.5906
vn 0.8238 0.1410 -0.5490
vn 0.0978 0.4586 -0.8832
vn 0.0836 0.4582 -0.8849
vn 0.9630 -0.2693 -0.0070
vn 0.9340 -0.3471 -0.0846
vn 0.1103 -0.5430 0.8325
vn 0.1017 -0.5411 0.8348
vn 0.7216 -0.2573 0.6427
vn 0.7131 -0.3584 0.6025
vn 0.7121 -0.1251 0.6908
vn 0.9007 0.4258 -0.0856
vn 0.9028 0.4032 -0.1495
vn 0.0070 -0.2693 0.9630
vn 0.0846 -0.3471 0.9340
vn -0.8325 -0.5430 0.1103
vn -0.8348 -0.5411 0.1017
vn -0.6427 -0.2573 0.7216
vn -0.6025 -0.3584 0.7131
vn -0.6908 -0.1251 0.7121
vn 0.0856 0.4258 0.9007
vn 0.1495 0.4032 0.9028
vn -0.9630 -0.2693 0.0070
vn -0.9340 -0.3471 0.0846
vn -0.1103 -0.5430 -0.8325
vn -0.1017 -0.5411 -0.8348
vn -0.7216 -0.2573 -0.6427
vn -0.7131 -0.3584 -0.6025
vn -0.7121 -0.1251 -0.6908
vn -0.9007 0.4258 0.0856
vn -0.9028 0.4032 0.1495
vn -0.0070 -0.2693 -0.9630
vn -0.0846 -0.3471 -0.9340
vn 0.8325 -0.5430 -0.1103
vn 0.8348 -0.5411 -0.1017
vn 0.6427 -0.2573 -0.7216
vn 0.6025 -0.3584 -0.7131
vn 0.6908 -0.1251 -0.7121
vn -0.0856 0.4258 -0.9007
vn -0.1495 0.4032 -0.9028
vn 0.8841 -0.4333 -0.1749
vn 0.2175 -0.5626 0.7976
vn 0.7698 -0.3763 0.5156
vn 0.7504 -0.4293 0.5026
vn 0.7987 -0.2756 0.5349
vn 0.8981 0.3653 -0.2449
vn 0.1749 -0.4333 0.8841
vn -0.7976 -0.5626 0.2175
vn -0.5156 -0.3763 0.7698
vn -0.5026 -0.4293 0.7504
vn -0.5349 -0.2756 0.7987
vn 0.2449 0.3653 0.8981
vn -0.8841 -0.4333 0.1749
vn -0.2175 -0.5626 -0.7976
vn -0.7698 -0.3763 -0.5156
vn -0.7504 -0.4293 -0.5026
vn -0.7987 -0.2756 -0.5349
vn -0.8981 0.3653 0.2449
vn -0.1749 -0.4333 -0.8841
vn 0.7976 -0.5626 -0.2175
vn 0.5156 -0.3763 -0.7698
vn 0.5026 -0.4293 -0.7504
vn 0.5349 -0.2756 -0.7987
vn -0.2449 0.3653 -0.8981
vt 0.691406 0.828125
vt 0.691406 0.878906
vt 0.679688 0.871094
vt 0.687500 0.886719
vt 0.687500 0.941406
vt 0.679688 0.933594
vt 0.691406 0.703125
vt 0.691406 0.769531
vt 0.679688 0.761719
vt 0.382812 0.828125
vt 0.390625 0.902344
vt 0.382812 0.910156
vt 0.468750 0.609375
vt 0.480469 0.671875
vt 0.468750 0.683594
vt 0.492188 0.667969
vt 0.679688 0.773438
vt 0.691406 0.816406
vt 0.679688 0.824219
vt 0.691406 0.964844
vt 0.691406 1.000000
vt 0.675781 0.988281
vt 0.679688 0.960938
vt 0.980469 0.894531
vt 0.980469 0.941406
vt 0.964844 0.929688
vt 0.964844 0.898438
vt 0.843750 0.906250
vt 0.843750 0.964844
vt 0.824219 0.957031
vt 0.828125 0.910156
vt 0.453125 0.726562
vt 0.417969 0.777344
vt 0.402344 0.781250
vt 0.445312 0.718750
vt 0.167969 0.890625
vt 0.171875 0.937500
vt 0.152344 0.953125
vt 0.152344 0.890625
vt 0.179688 0.890625
vt 0.187500 0.933594
vt 0.511719 0.968750
vt 0.519531 0.992188
vt 0.500000 0.996094
vt 0.500000 0.964844
vt 0.980469 0.820312
vt 0.980469 0.863281
vt 0.960938 0.855469
vt 0.960938 0.824219
vt 0.546875 0.906250
vt 0.546875 0.968750
vt 0.531250 0.957031
vt 0.531250 0.914062
vt 0.929688 0.820312
vt 0.929688 0.886719
vt 0.910156 0.882812
vt 0.910156 0.820312
vt 0.453125 0.843750
vt 0.441406 0.855469
vt 0.312500 0.734375
vt 0.292969 0.785156
vt 0.265625 0.785156
vt 0.292969 0.718750
vt 0.324219 0.746094
vt 0.308594 0.781250
vt 0.980469 0.777344
vt 0.980469 0.808594
vt 0.960938 0.808594
vt 0.960938 0.777344
vt 0.718750 0.910156
vt 0.718750 0.964844
vt 0.699219 0.953125
vt 0.699219 0.917969
vt 0.957031 0.820312
vt 0.957031 0.886719
vt 0.937500 0.878906
vt 0.937500 0.828125
vt 0.929688 0.722656
vt 0.929688 0.792969
vt 0.910156 0.792969
vt 0.910156 0.722656
vt 0.492188 0.726562
vt 0.492188 0.804688
vt 0.476562 0.808594
vt 0.476562 0.718750
vt 0.324219 0.828125
vt 0.312500 0.851562
vt 0.363281 0.949219
vt 0.363281 0.988281
vt 0.347656 0.996094
vt 0.347656 0.941406
vt 0.582031 0.964844
vt 0.582031 1.000000
vt 0.562500 0.996094
vt 0.562500 0.964844
vt 0.792969 0.964844
vt 0.792969 0.910156
vt 0.812500 0.917969
vt 0.812500 0.953125
vt 0.933594 0.687500
vt 0.933594 0.613281
vt 0.949219 0.621094
vt 0.949219 0.675781
vt 0.882812 0.800781
vt 0.882812 0.722656
vt 0.902344 0.722656
vt 0.902344 0.792969
vt 0.246094 0.882812
vt 0.246094 0.800781
vt 0.257812 0.792969
vt 0.257812 0.890625
vt 0.222656 0.871094
vt 0.222656 0.816406
vt 0.476562 0.972656
vt 0.476562 0.929688
vt 0.492188 0.921875
vt 0.492188 0.980469
vt 0.976562 0.675781
vt 0.976562 0.710938
vt 0.957031 0.710938
vt 0.957031 0.675781
vt 0.980469 0.722656
vt 0.980469 0.769531
vt 0.960938 0.765625
vt 0.960938 0.726562
vt 0.902344 0.898438
vt 0.902344 0.964844
vt 0.882812 0.957031
vt 0.882812 0.910156
vt 0.929688 0.500000
vt 0.929688 0.570312
vt 0.910156 0.570312
vt 0.910156 0.503906
vt 0.339844 0.515625
vt 0.281250 0.566406
vt 0.269531 0.562500
vt 0.335938 0.500000
vt 0.246094 0.906250
vt 0.242188 0.964844
vt 0.222656 0.972656
vt 0.222656 0.898438
vt 0.343750 0.949219
vt 0.343750 0.996094
vt 0.328125 1.000000
vt 0.328125 0.941406
vt 0.667969 0.960938
vt 0.667969 1.000000
vt 0.652344 1.000000
vt 0.648438 0.960938
vt 0.980469 0.500000
vt 0.980469 0.550781
vt 0.960938 0.542969
vt 0.960938 0.507812
vt 0.609375 0.902344
vt 0.609375 0.968750
vt 0.589844 0.960938
vt 0.589844 0.910156
vt 0.929688 0.894531
vt 0.929688 0.960938
vt 0.910156 0.960938
vt 0.910156 0.894531
vt 0.281250 0.640625
vt 0.265625 0.648438
vt 0.425781 0.621094
vt 0.425781 0.675781
vt 0.402344 0.683594
vt 0.402344 0.609375
vt 0.437500 0.625000
vt 0.437500 0.667969
vt 1.000000 0.613281
vt 1.000000 0.652344
vt 0.980469 0.648438
vt 0.980469 0.617188
vt 0.957031 0.667969
vt 0.957031 0.613281
vt 0.972656 0.621094
vt 0.972656 0.660156
vt 0.937500 0.792969
vt 0.937500 0.722656
vt 0.953125 0.726562
vt 0.953125 0.781250
vt 0.906250 0.691406
vt 0.906250 0.613281
vt 0.925781 0.613281
vt 0.921875 0.683594
vt 0.339844 0.699219
vt 0.335938 0.714844
vt 0.191406 0.960938
vt 0.191406 0.902344
vt 0.214844 0.890625
vt 0.214844 0.972656
vt 0.062500 0.726562
vt 0.039062 0.765625
vt 0.023438 0.765625
vt 0.054688 0.714844
vt 0.984375 0.949219
vt 0.984375 0.988281
vt 0.964844 0.984375
vt 0.964844 0.949219
vt 0.875000 0.906250
vt 0.875000 0.960938
vt 0.855469 0.953125
vt 0.855469 0.910156
vt 0.953125 0.500000
vt 0.953125 0.570312
vt 0.937500 0.562500
vt 0.937500 0.507812
vt 0.816406 0.824219
vt 0.816406 0.902344
vt 0.792969 0.898438
vt 0.796875 0.828125
vt 0.398438 0.511719
vt 0.363281 0.589844
vt 0.343750 0.589844
vt 0.386719 0.500000
vt 0.050781 0.828125
vt 0.035156 0.847656
vt 0.000000 0.765625
vt 0.062500 0.812500
vt 0.980469 0.558594
vt 0.984375 0.601562
vt 0.960938 0.601562
vt 0.960938 0.558594
vt 0.937500 0.957031
vt 0.937500 0.894531
vt 0.957031 0.906250
vt 0.957031 0.953125
vt 0.843750 0.820312
vt 0.843750 0.902344
vt 0.824219 0.890625
vt 0.824219 0.828125
vt 0.640625 0.808594
vt 0.640625 0.894531
vt 0.617188 0.890625
vt 0.617188 0.812500
vt 0.398438 0.679688
vt 0.386719 0.691406
vt 0.140625 0.527344
vt 0.066406 0.531250
vt 0.050781 0.507812
vt 0.148438 0.500000
vt 0.136719 0.542969
vt 0.078125 0.546875
vt 0.671875 0.906250
vt 0.671875 0.957031
vt 0.648438 0.953125
vt 0.652344 0.906250
vt 0.902344 0.820312
vt 0.902344 0.894531
vt 0.882812 0.882812
vt 0.882812 0.828125
vt 0.550781 0.804688
vt 0.550781 0.898438
vt 0.531250 0.890625
vt 0.531250 0.816406
vt 0.847656 0.500000
vt 0.847656 0.593750
vt 0.824219 0.593750
vt 0.824219 0.500000
vt 0.214844 0.687500
vt 0.171875 0.781250
vt 0.152344 0.781250
vt 0.207031 0.675781
vt 0.031250 0.597656
vt 0.000000 0.597656
vt 0.257812 0.515625
vt 0.195312 0.527344
vt 0.187500 0.511719
vt 0.261719 0.500000
vt 0.523438 0.906250
vt 0.523438 0.957031
vt 0.500000 0.953125
vt 0.500000 0.906250
vt 0.718750 0.824219
vt 0.718750 0.902344
vt 0.699219 0.894531
vt 0.699219 0.835938
vt 0.875000 0.500000
vt 0.875000 0.593750
vt 0.855469 0.585938
vt 0.855469 0.507812
vt 0.785156 0.726562
vt 0.785156 0.824219
vt 0.765625 0.824219
vt 0.765625 0.726562
vt 0.214844 0.871094
vt 0.203125 0.886719
vt 0.066406 0.667969
vt 0.050781 0.691406
vt 0.171875 0.582031
vt 0.152344 0.585938
vt 0.785156 0.902344
vt 0.785156 0.960938
vt 0.765625 0.957031
vt 0.765625 0.906250
vt 0.500000 0.500000
vt 0.574219 0.519531
vt 0.562500 0.535156
vt 0.503906 0.523438
vt 0.519531 0.808594
vt 0.519531 0.898438
vt 0.500000 0.890625
vt 0.500000 0.812500
vt 0.847656 0.722656
vt 0.847656 0.812500
vt 0.824219 0.812500
vt 0.824219 0.722656
vt 0.472656 0.726562
vt 0.472656 0.824219
vt 0.457031 0.832031
vt 0.457031 0.718750
vt 0.144531 0.683594
vt 0.148438 0.710938
vt 0.199219 0.636719
vt 0.187500 0.652344
vt 0.640625 0.902344
vt 0.640625 0.960938
vt 0.617188 0.957031
vt 0.617188 0.906250
vt 0.609375 0.585938
vt 0.589844 0.589844
vt 0.902344 0.500000
vt 0.902344 0.589844
vt 0.882812 0.582031
vt 0.882812 0.503906
vt 0.671875 0.812500
vt 0.671875 0.898438
vt 0.648438 0.898438
vt 0.648438 0.812500
vt 0.421875 0.867188
vt 0.421875 0.964844
vt 0.402344 0.968750
vt 0.402344 0.863281
vt 0.445312 0.878906
vt 0.445312 0.953125
vt 0.257812 0.652344
vt 0.261719 0.667969
vt 0.753906 0.902344
vt 0.753906 0.960938
vt 0.734375 0.957031
vt 0.730469 0.910156
vt 0.578125 0.664062
vt 0.566406 0.644531
vt 0.875000 0.613281
vt 0.875000 0.703125
vt 0.855469 0.699219
vt 0.855469 0.617188
vt 0.875000 0.726562
vt 0.875000 0.808594
vt 0.855469 0.812500
vt 0.855469 0.722656
vt 0.285156 0.859375
vt 0.285156 0.953125
vt 0.265625 0.960938
vt 0.265625 0.855469
vt 0.308594 0.867188
vt 0.312500 0.945312
vt 0.500000 0.507812
vt 0.500000 0.566406
vt 0.484375 0.574219
vt 0.484375 0.500000
vt 0.582031 0.894531
vt 0.582031 0.957031
vt 0.562500 0.949219
vt 0.562500 0.902344
vt 0.500000 0.687500
vt 0.500000 0.664062
vt 0.722656 0.726562
vt 0.722656 0.820312
vt 0.699219 0.812500
vt 0.703125 0.730469
vt 0.753906 0.730469
vt 0.753906 0.812500
vt 0.730469 0.816406
vt 0.730469 0.722656
vt 0.019531 0.855469
vt 0.019531 0.953125
vt 0.000000 0.957031
vt 0.000000 0.851562
vt 0.046875 0.863281
vt 0.046875 0.941406
vt 0.492188 0.843750
vt 0.492188 0.910156
vt 0.476562 0.914062
vt 0.476562 0.835938
vt 0.785156 0.828125
vt 0.785156 0.894531
vt 0.765625 0.890625
vt 0.765625 0.835938
vt 0.847656 0.613281
vt 0.847656 0.707031
vt 0.824219 0.695312
vt 0.824219 0.621094
vt 0.644531 0.703125
vt 0.644531 0.800781
vt 0.617188 0.796875
vt 0.617188 0.707031
vt 0.816406 0.503906
vt 0.816406 0.589844
vt 0.792969 0.597656
vt 0.792969 0.500000
vt 0.089844 0.835938
vt 0.089844 0.937500
vt 0.070312 0.941406
vt 0.070312 0.832031
vt 0.117188 0.843750
vt 0.121094 0.929688
vt 0.476562 0.503906
vt 0.476562 0.578125
vt 0.460938 0.585938
vt 0.460938 0.500000
vt 0.730469 0.894531
vt 0.730469 0.824219
vt 0.753906 0.835938
vt 0.753906 0.890625
vt 0.671875 0.703125
vt 0.671875 0.804688
vt 0.648438 0.792969
vt 0.648438 0.714844
vt 0.757812 0.613281
vt 0.757812 0.718750
vt 0.730469 0.714844
vt 0.730469 0.617188
vt 0.757812 0.507812
vt 0.757812 0.597656
vt 0.730469 0.605469
vt 0.730469 0.500000
vt 0.144531 0.835938
vt 0.144531 0.941406
vt 0.125000 0.945312
vt 0.125000 0.832031
vt 0.433594 0.507812
vt 0.433594 0.597656
vt 0.402344 0.605469
vt 0.402344 0.500000
vt 0.453125 0.515625
vt 0.453125 0.589844
vt 0.875000 0.820312
vt 0.875000 0.898438
vt 0.855469 0.886719
vt 0.855469 0.828125
vt 0.785156 0.500000
vt 0.785156 0.605469
vt 0.761719 0.597656
vt 0.761719 0.511719
vt 0.726562 0.500000
vt 0.726562 0.605469
vt 0.699219 0.605469
vt 0.699219 0.500000
vt 0.789062 0.621094
vt 0.789062 0.710938
vt 0.765625 0.722656
vt 0.765625 0.613281
vt 0.089844 0.718750
vt 0.089844 0.828125
vt 0.070312 0.828125
vt 0.070312 0.714844
vt 0.121094 0.726562
vt 0.121094 0.820312
vt 0.140625 0.730469
vt 0.140625 0.816406
vt 0.582031 0.800781
vt 0.582031 0.886719
vt 0.562500 0.878906
vt 0.562500 0.812500
vt 0.523438 0.695312
vt 0.523438 0.800781
vt 0.500000 0.792969
vt 0.500000 0.703125
vt 0.726562 0.613281
vt 0.726562 0.718750
vt 0.699219 0.718750
vt 0.699219 0.613281
vt 0.554688 0.703125
vt 0.554688 0.789062
vt 0.531250 0.800781
vt 0.531250 0.695312
vt 0.347656 0.828125
vt 0.347656 0.937500
vt 0.328125 0.937500
vt 0.328125 0.828125
vt 0.378906 0.835938
vt 0.378906 0.933594
vt 0.464844 0.617188
vt 0.464844 0.703125
vt 0.445312 0.707031
vt 0.445312 0.609375
vt 0.625000 0.500000
vt 0.691406 0.554688
vt 0.671875 0.566406
vt 0.617188 0.523438
vt 0.816406 0.613281
vt 0.816406 0.714844
vt 0.800781 0.714844
vt 0.792969 0.625000
vt 0.585938 0.695312
vt 0.578125 0.789062
vt 0.562500 0.796875
vt 0.562500 0.695312
vt 0.792969 0.808594
vt 0.800781 0.730469
vt 0.816406 0.722656
vt 0.816406 0.816406
vt 0.347656 0.718750
vt 0.359375 0.820312
vt 0.343750 0.816406
vt 0.328125 0.718750
vt 0.378906 0.726562
vt 0.382812 0.824219
vt 0.398438 0.730469
vt 0.398438 0.820312
vt 0.691406 0.644531
vt 0.675781 0.636719
vt 0.898438 0.613281
vt 0.898438 0.710938
vt 0.882812 0.621094
vt 0.609375 0.800781
vt 0.593750 0.898438
vt 0.589844 0.800781
vt 0.593750 0.789062
vt 0.609375 0.695312
vt 0.609375 0.792969
vt 0.457031 0.949219
vt 0.468750 0.835938
vt 0.468750 0.957031
vt 0.234375 0.781250
vt 0.257812 0.675781
vt 0.257812 0.789062
vt 0.222656 0.773438
vt 0.617188 0.695312
vt 0.433594 0.289062
vt 0.453125 0.320312
vt 0.425781 0.296875
vt 0.433594 0.269531
vt 0.460938 0.312500
vt 0.433594 0.250000
vt 0.453125 0.218750
vt 0.425781 0.246094
vt 0.476562 0.312500
vt 0.496094 0.312500
vt 0.460938 0.226562
vt 0.503906 0.320312
vt 0.480469 0.226562
vt 0.519531 0.289062
vt 0.527344 0.296875
vt 0.496094 0.226562
vt 0.503906 0.218750
vt 0.523438 0.269531
vt 0.523438 0.253906
vt 0.527344 0.246094
vt 0.484375 0.199219
vt 0.488281 0.210938
vt 0.480469 0.203125
vt 0.480469 0.195312
vt 0.480469 0.187500
vt 0.488281 0.175781
vt 0.480469 0.183594
vt 0.492188 0.207031
vt 0.496094 0.207031
vt 0.503906 0.207031
vt 0.492188 0.179688
vt 0.496094 0.179688
vt 0.503906 0.210938
vt 0.511719 0.199219
vt 0.515625 0.203125
vt 0.503906 0.179688
vt 0.503906 0.175781
vt 0.511719 0.191406
vt 0.515625 0.183594
vt 0.511719 0.187500
vt 0.707031 0.425781
vt 0.722656 0.441406
vt 0.703125 0.457031
vt 0.699219 0.429688
vt 0.714844 0.218750
vt 0.703125 0.234375
vt 0.695312 0.238281
vt 0.710938 0.218750
vt 0.742188 0.042969
vt 0.738281 0.019531
vt 0.750000 0.011719
vt 0.746094 0.039062
vt 0.738281 0.046875
vt 0.726562 0.023438
vt 0.429688 0.000000
vt 0.457031 0.011719
vt 0.449219 0.015625
vt 0.425781 0.000000
vt 0.714844 0.089844
vt 0.695312 0.070312
vt 0.714844 0.058594
vt 0.718750 0.082031
vt 0.292969 0.250000
vt 0.292969 0.222656
vt 0.296875 0.218750
vt 0.296875 0.246094
vt 0.675781 0.187500
vt 0.671875 0.164062
vt 0.683594 0.160156
vt 0.679688 0.183594
vt 0.671875 0.191406
vt 0.660156 0.167969
vt 0.417969 0.214844
vt 0.390625 0.203125
vt 0.398438 0.199219
vt 0.421875 0.210938
vt 0.746094 0.296875
vt 0.722656 0.277344
vt 0.742188 0.265625
vt 0.750000 0.289062
vt 0.648438 0.460938
vt 0.652344 0.484375
vt 0.648438 0.492188
vt 0.648438 0.464844
vt 0.652344 0.457031
vt 0.660156 0.476562
vt 0.660156 0.453125
vt 0.671875 0.472656
vt 0.308594 0.214844
vt 0.281250 0.203125
vt 0.289062 0.199219
vt 0.308594 0.210938
vt 0.703125 0.093750
vt 0.718750 0.109375
vt 0.699219 0.125000
vt 0.695312 0.101562
vt 0.722656 0.308594
vt 0.726562 0.335938
vt 0.722656 0.339844
vt 0.722656 0.312500
vt 0.726562 0.304688
vt 0.734375 0.328125
vt 0.730469 0.300781
vt 0.742188 0.320312
vt 0.316406 0.000000
vt 0.343750 0.011719
vt 0.335938 0.011719
vt 0.726562 0.460938
vt 0.699219 0.472656
vt 0.699219 0.250000
vt 0.691406 0.253906
vt 0.738281 0.003906
vt 0.750000 0.000000
vt 0.726562 0.007812
vt 0.464844 0.027344
vt 0.457031 0.027344
vt 0.691406 0.054688
vt 0.718750 0.039062
vt 0.726562 0.210938
vt 0.734375 0.199219
vt 0.742188 0.195312
vt 0.734375 0.210938
vt 0.671875 0.148438
vt 0.687500 0.144531
vt 0.660156 0.152344
vt 0.382812 0.187500
vt 0.390625 0.187500
vt 0.722656 0.261719
vt 0.746094 0.246094
vt 0.292969 0.273438
vt 0.292969 0.257812
vt 0.296875 0.253906
vt 0.296875 0.269531
vt 0.542969 0.207031
vt 0.542969 0.191406
vt 0.558594 0.187500
vt 0.554688 0.203125
vt 0.675781 0.484375
vt 0.664062 0.492188
vt 0.269531 0.191406
vt 0.277344 0.187500
vt 0.722656 0.128906
vt 0.695312 0.140625
vt 0.523438 0.433594
vt 0.519531 0.449219
vt 0.511719 0.449219
vt 0.515625 0.433594
vt 0.273438 0.218750
vt 0.273438 0.230469
vt 0.257812 0.238281
vt 0.261719 0.222656
vt 0.746094 0.335938
vt 0.738281 0.343750
vt 0.351562 0.023438
vt 0.343750 0.027344
vt 0.726562 0.476562
vt 0.699219 0.488281
vt 0.699219 0.265625
vt 0.691406 0.269531
vt 0.445312 0.035156
vt 0.449219 0.050781
vt 0.437500 0.054688
vt 0.437500 0.042969
vt 0.457031 0.042969
vt 0.464844 0.039062
vt 0.695312 0.039062
vt 0.718750 0.027344
vt 0.734375 0.183594
vt 0.742188 0.179688
vt 0.671875 0.136719
vt 0.687500 0.132812
vt 0.660156 0.140625
vt 0.378906 0.175781
vt 0.386719 0.171875
vt 0.722656 0.246094
vt 0.746094 0.234375
vt 0.558594 0.171875
vt 0.566406 0.171875
vt 0.562500 0.187500
vt 0.546875 0.179688
vt 0.531250 0.199219
vt 0.531250 0.183594
vt 0.265625 0.175781
vt 0.273438 0.171875
vt 0.718750 0.144531
vt 0.695312 0.156250
vt 0.519531 0.460938
vt 0.511719 0.464844
vt 0.273438 0.246094
vt 0.257812 0.250000
vt 0.285156 0.226562
vt 0.285156 0.238281
vt 0.355469 0.039062
vt 0.347656 0.042969
vt 0.726562 0.488281
vt 0.699219 0.281250
vt 0.691406 0.285156
vt 0.449219 0.062500
vt 0.433594 0.070312
vt 0.460938 0.058594
vt 0.468750 0.054688
vt 0.695312 0.023438
vt 0.722656 0.011719
vt 0.734375 0.167969
vt 0.742188 0.164062
vt 0.492188 0.433594
vt 0.492188 0.445312
vt 0.476562 0.445312
vt 0.480469 0.433594
vt 0.386719 0.156250
vt 0.398438 0.148438
vt 0.398438 0.164062
vt 0.378906 0.160156
vt 0.722656 0.230469
vt 0.750000 0.218750
vt 0.558594 0.156250
vt 0.566406 0.156250
vt 0.546875 0.164062
vt 0.531250 0.171875
vt 0.265625 0.160156
vt 0.273438 0.156250
vt 0.722656 0.160156
vt 0.691406 0.171875
vt 0.523438 0.476562
vt 0.515625 0.480469
vt 0.269531 0.261719
vt 0.257812 0.265625
vt 0.285156 0.253906
vt 0.359375 0.054688
vt 0.351562 0.054688
vt 0.398438 0.371094
vt 0.398438 0.382812
vt 0.371094 0.390625
vt 0.371094 0.375000
vt 0.703125 0.296875
vt 0.699219 0.300781
vt 0.285156 0.457031
vt 0.285156 0.468750
vt 0.269531 0.472656
vt 0.273438 0.457031
vt 0.460938 0.074219
vt 0.449219 0.078125
vt 0.468750 0.074219
vt 0.691406 0.007812
vt 0.718750 0.000000
vt 0.734375 0.152344
vt 0.742188 0.148438
vt 0.492188 0.457031
vt 0.476562 0.460938
vt 0.382812 0.140625
vt 0.398438 0.136719
vt 0.375000 0.140625
vt 0.535156 0.492188
vt 0.535156 0.476562
vt 0.562500 0.464844
vt 0.562500 0.480469
vt 0.558594 0.140625
vt 0.566406 0.140625
vt 0.542969 0.148438
vt 0.531250 0.156250
vt 0.261719 0.144531
vt 0.273438 0.140625
vt 0.722656 0.175781
vt 0.695312 0.183594
vt 0.257812 0.281250
vt 0.250000 0.285156
vt 0.250000 0.269531
vt 0.273438 0.277344
vt 0.285156 0.269531
vt 0.359375 0.070312
vt 0.351562 0.070312
vt 0.398438 0.398438
vt 0.371094 0.406250
vt 0.710938 0.312500
vt 0.703125 0.316406
vt 0.285156 0.484375
vt 0.273438 0.488281
vt 0.460938 0.089844
vt 0.449219 0.093750
vt 0.468750 0.089844
vt 0.570312 0.449219
vt 0.582031 0.457031
vt 0.582031 0.484375
vt 0.566406 0.476562
vt 0.730469 0.136719
vt 0.738281 0.132812
vt 0.492188 0.472656
vt 0.476562 0.476562
vt 0.503906 0.457031
vt 0.503906 0.468750
vt 0.375000 0.125000
vt 0.382812 0.125000
vt 0.535156 0.460938
vt 0.562500 0.449219
vt 0.554688 0.125000
vt 0.562500 0.125000
vt 0.542969 0.132812
vt 0.531250 0.140625
vt 0.261719 0.128906
vt 0.269531 0.125000
vt 0.386719 0.363281
vt 0.382812 0.347656
vt 0.410156 0.335938
vt 0.410156 0.355469
vt 0.261719 0.296875
vt 0.253906 0.300781
vt 0.273438 0.292969
vt 0.351562 0.089844
vt 0.339844 0.093750
vt 0.339844 0.078125
vt 0.359375 0.085938
vt 0.402344 0.414062
vt 0.371094 0.425781
vt 0.714844 0.328125
vt 0.710938 0.332031
vt 0.449219 0.109375
vt 0.437500 0.117188
vt 0.433594 0.101562
vt 0.464844 0.105469
vt 0.628906 0.480469
vt 0.632812 0.468750
vt 0.640625 0.468750
vt 0.636719 0.484375
vt 0.574219 0.210938
vt 0.570312 0.195312
vt 0.597656 0.191406
vt 0.597656 0.207031
vt 0.726562 0.121094
vt 0.734375 0.117188
vt 0.492188 0.488281
vt 0.476562 0.492188
vt 0.382812 0.109375
vt 0.394531 0.101562
vt 0.398438 0.121094
vt 0.375000 0.109375
vt 0.699219 0.417969
vt 0.699219 0.402344
vt 0.726562 0.394531
vt 0.726562 0.410156
vt 0.550781 0.109375
vt 0.558594 0.105469
vt 0.265625 0.472656
vt 0.250000 0.468750
vt 0.250000 0.457031
vt 0.265625 0.457031
vt 0.265625 0.484375
vt 0.250000 0.484375
vt 0.261719 0.109375
vt 0.269531 0.109375
vt 0.378906 0.332031
vt 0.410156 0.320312
vt 0.265625 0.316406
vt 0.257812 0.316406
vt 0.339844 0.109375
vt 0.324219 0.117188
vt 0.324219 0.097656
vt 0.355469 0.105469
vt 0.355469 0.433594
vt 0.355469 0.449219
vt 0.343750 0.445312
vt 0.347656 0.429688
vt 0.402344 0.433594
vt 0.371094 0.445312
vt 0.609375 0.000000
vt 0.605469 0.019531
vt 0.597656 0.019531
vt 0.601562 0.000000
vt 0.453125 0.132812
vt 0.437500 0.136719
vt 0.468750 0.125000
vt 0.632812 0.449219
vt 0.640625 0.453125
vt 0.570312 0.175781
vt 0.597656 0.171875
vt 0.726562 0.097656
vt 0.734375 0.093750
vt 0.394531 0.082031
vt 0.410156 0.078125
vt 0.410156 0.097656
vt 0.378906 0.089844
vt 0.484375 0.000000
vt 0.492188 0.019531
vt 0.484375 0.023438
vt 0.480469 0.003906
vt 0.699219 0.382812
vt 0.730469 0.378906
vt 0.546875 0.089844
vt 0.558594 0.085938
vt 0.281250 0.101562
vt 0.281250 0.082031
vt 0.296875 0.078125
vt 0.296875 0.097656
vt 0.265625 0.089844
vt 0.257812 0.089844
vt 0.375000 0.316406
vt 0.406250 0.300781
vt 0.265625 0.335938
vt 0.257812 0.339844
vt 0.343750 0.132812
vt 0.324219 0.136719
vt 0.359375 0.125000
vt 0.355469 0.464844
vt 0.343750 0.464844
vt 0.406250 0.453125
vt 0.371094 0.468750
vt 0.601562 0.039062
vt 0.589844 0.039062
vt 0.453125 0.156250
vt 0.433594 0.160156
vt 0.472656 0.152344
vt 0.628906 0.429688
vt 0.640625 0.429688
vt 0.613281 0.324219
vt 0.625000 0.347656
vt 0.597656 0.363281
vt 0.593750 0.339844
vt 0.546875 0.218750
vt 0.546875 0.242188
vt 0.539062 0.242188
vt 0.539062 0.218750
vt 0.394531 0.058594
vt 0.414062 0.050781
vt 0.375000 0.062500
vt 0.507812 0.042969
vt 0.496094 0.046875
vt 0.699219 0.355469
vt 0.734375 0.351562
vt 0.550781 0.062500
vt 0.558594 0.058594
vt 0.277344 0.058594
vt 0.296875 0.050781
vt 0.257812 0.062500
vt 0.250000 0.062500
vt 0.371094 0.296875
vt 0.406250 0.277344
vt 0.265625 0.359375
vt 0.253906 0.367188
vt 0.343750 0.156250
vt 0.324219 0.160156
vt 0.363281 0.152344
vt 0.355469 0.484375
vt 0.343750 0.484375
vt 0.570312 0.371094
vt 0.578125 0.398438
vt 0.542969 0.414062
vt 0.542969 0.382812
vt 0.593750 0.066406
vt 0.578125 0.066406
vt 0.453125 0.183594
vt 0.429688 0.187500
vt 0.472656 0.179688
vt 0.656250 0.218750
vt 0.675781 0.246094
vt 0.660156 0.246094
vt 0.648438 0.222656
vt 0.636719 0.375000
vt 0.597656 0.394531
vt 0.546875 0.265625
vt 0.535156 0.269531
vt 0.394531 0.031250
vt 0.417969 0.023438
vt 0.371094 0.035156
vt 0.519531 0.070312
vt 0.507812 0.070312
vt 0.628906 0.214844
vt 0.617188 0.187500
vt 0.652344 0.164062
vt 0.656250 0.195312
vt 0.550781 0.035156
vt 0.562500 0.027344
vt 0.281250 0.031250
vt 0.300781 0.023438
vt 0.257812 0.035156
vt 0.640625 0.128906
vt 0.625000 0.105469
vt 0.636719 0.101562
vt 0.648438 0.125000
vt 0.371094 0.273438
vt 0.410156 0.250000
vt 0.265625 0.390625
vt 0.253906 0.394531
vt 0.343750 0.183594
vt 0.320312 0.191406
vt 0.363281 0.179688
vt 0.679688 0.128906
vt 0.664062 0.105469
vt 0.675781 0.101562
vt 0.687500 0.125000
vt 0.578125 0.429688
vt 0.535156 0.441406
vt 0.585938 0.093750
vt 0.570312 0.093750
vt 0.449219 0.210938
vt 0.425781 0.214844
vt 0.472656 0.207031
vt 0.683594 0.273438
vt 0.671875 0.273438
vt 0.636719 0.402344
vt 0.593750 0.421875
vt 0.546875 0.292969
vt 0.535156 0.296875
vt 0.398438 0.003906
vt 0.421875 0.000000
vt 0.375000 0.007812
vt 0.523438 0.097656
vt 0.511719 0.101562
vt 0.613281 0.156250
vt 0.656250 0.132812
vt 0.542969 0.007812
vt 0.554688 0.000000
vt 0.285156 0.003906
vt 0.308594 0.000000
vt 0.257812 0.007812
vt 0.613281 0.074219
vt 0.628906 0.074219
vt 0.371094 0.246094
vt 0.410156 0.218750
vt 0.269531 0.417969
vt 0.257812 0.425781
vt 0.339844 0.210938
vt 0.316406 0.214844
vt 0.363281 0.207031
vt 0.652344 0.078125
vt 0.667969 0.074219
vt 0.593750 0.429688
vt 0.621094 0.449219
vt 0.621094 0.484375
vt 0.593750 0.476562
vt 0.589844 0.125000
vt 0.574219 0.128906
vt 0.671875 0.363281
vt 0.671875 0.394531
vt 0.652344 0.406250
vt 0.648438 0.375000
vt 0.691406 0.351562
vt 0.691406 0.382812
vt 0.679688 0.304688
vt 0.667969 0.308594
vt 0.472656 0.328125
vt 0.468750 0.355469
vt 0.429688 0.382812
vt 0.425781 0.347656
vt 0.558594 0.324219
vt 0.546875 0.332031
vt 0.566406 0.281250
vt 0.574219 0.312500
vt 0.585938 0.265625
vt 0.585938 0.296875
vt 0.515625 0.132812
vt 0.503906 0.132812
vt 0.519531 0.328125
vt 0.519531 0.355469
vt 0.480469 0.382812
vt 0.476562 0.347656
vt 0.351562 0.296875
vt 0.347656 0.265625
vt 0.359375 0.261719
vt 0.363281 0.292969
vt 0.328125 0.308594
vt 0.328125 0.277344
vt 0.308594 0.320312
vt 0.312500 0.289062
vt 0.617188 0.042969
vt 0.628906 0.039062
vt 0.308594 0.425781
vt 0.308594 0.394531
vt 0.351562 0.371094
vt 0.351562 0.406250
vt 0.285156 0.445312
vt 0.277344 0.449219
vt 0.613281 0.308594
vt 0.613281 0.277344
vt 0.632812 0.265625
vt 0.636719 0.296875
vt 0.593750 0.316406
vt 0.593750 0.285156
vt 0.656250 0.042969
vt 0.667969 0.039062
vt 0.308594 0.488281
vt 0.312500 0.445312
vt 0.339844 0.429688
vt 0.339844 0.476562
vt 0.609375 0.164062
vt 0.597656 0.167969
vt 0.675781 0.437500
vt 0.664062 0.445312
vt 0.691406 0.425781
vt 0.660156 0.347656
vt 0.648438 0.347656
vt 0.472656 0.402344
vt 0.445312 0.425781
vt 0.585938 0.359375
vt 0.578125 0.367188
vt 0.445312 0.433594
vt 0.441406 0.476562
vt 0.425781 0.480469
vt 0.425781 0.437500
vt 0.460938 0.433594
vt 0.457031 0.468750
vt 0.488281 0.171875
vt 0.480469 0.167969
vt 0.519531 0.402344
vt 0.492188 0.425781
vt 0.324219 0.226562
vt 0.332031 0.222656
vt 0.316406 0.234375
vt 0.308594 0.246094
vt 0.636719 0.000000
vt 0.648438 0.000000
vt 0.308594 0.351562
vt 0.335938 0.328125
vt 0.621094 0.222656
vt 0.628906 0.218750
vt 0.644531 0.261719
vt 0.605469 0.234375
vt 0.593750 0.242188
vt 0.675781 0.000000
vt 0.687500 0.000000
s 1
usemtl Manashroom
f 1/1/1 2/2/2 8/3/3
f 1/4/4 3/5/5 2/6/2
f 1/7/4 4/8/6 3/9/5
f 1/10/7 5/11/8 4/12/9
f 1/13/7 6/14/10 5/15/8
f 1/13/7 7/16/11 6/14/10
f 1/17/1 8/18/3 7/19/12
f 2/20/2 9/21/13 15/22/14 8/23/3
f 3/24/5 10/25/15 9/26/13 2/27/2
f 4/28/6 11/29/16 10/30/15 3/31/5
f 5/32/8 12/33/17 11/34/18 4/35/9
f 6/36/10 13/37/19 12/38/17 5/39/8
f 7/40/11 14/41/20 13/37/19 6/36/10
f 8/42/3 15/43/14 14/44/21 7/45/12
f 9/46/13 16/47/22 22/48/23 15/49/14
f 10/50/15 17/51/24 16/52/22 9/53/13
f 11/54/16 18/55/25 17/56/24 10/57/15
f 12/33/17 19/58/26 18/59/27 11/34/18
f 13/60/19 20/61/28 19/62/26 12/63/17
f 14/64/20 21/65/29 20/61/28 13/60/19
f 15/66/14 22/67/23 21/68/30 14/69/21
f 16/70/22 23/71/31 29/72/32 22/73/23
f 17/74/24 24/75/33 23/76/31 16/77/22
f 18/78/25 25/79/34 24/80/33 17/81/24
f 19/82/26 26/83/35 25/84/36 18/85/27
f 20/61/28 27/86/37 26/87/35 19/62/26
f 21/88/29 28/89/38 27/90/37 20/91/28
f 22/92/23 29/93/32 28/94/39 21/95/30
f 23/96/31 30/97/40 36/98/41 29/99/32
f 24/100/33 31/101/42 30/102/40 23/103/31
f 25/104/34 32/105/43 31/106/42 24/107/33
f 26/108/35 33/109/44 32/110/45 25/111/36
f 27/112/37 34/113/46 33/109/44 26/108/35
f 28/114/38 35/115/47 34/116/46 27/117/37
f 29/118/32 36/119/41 35/120/48 28/121/39
f 30/122/40 37/123/49 43/124/50 36/125/41
f 31/126/42 38/127/51 37/128/49 30/129/40
f 32/130/43 39/131/52 38/132/51 31/133/42
f 33/134/44 40/135/53 39/136/54 32/137/45
f 34/138/46 41/139/55 40/140/53 33/141/44
f 35/142/47 42/143/56 41/144/55 34/145/46
f 36/146/41 43/147/50 42/148/57 35/149/48
f 37/150/49 44/151/58 50/152/59 43/153/50
f 38/154/51 45/155/60 44/156/58 37/157/49
f 39/158/52 46/159/61 45/160/60 38/161/51
f 40/135/53 47/162/62 46/163/63 39/136/54
f 41/164/55 48/165/64 47/166/62 40/167/53
f 42/168/56 49/169/65 48/165/64 41/164/55
f 43/170/50 50/171/59 49/172/66 42/173/57
f 44/174/58 51/175/67 57/176/68 50/177/59
f 45/178/60 52/179/69 51/180/67 44/181/58
f 46/182/61 53/183/70 52/184/69 45/185/60
f 47/162/62 54/186/71 53/187/72 46/163/63
f 48/188/64 55/189/73 54/190/71 47/191/62
f 49/192/65 56/193/74 55/194/73 48/195/64
f 50/196/59 57/197/68 56/198/75 49/199/66
f 51/200/67 58/201/76 64/202/77 57/203/68
f 52/204/69 59/205/78 58/206/76 51/207/67
f 53/208/70 60/209/79 59/210/78 52/211/69
f 54/212/71 61/213/80 60/214/81 53/215/72
f 55/194/73 62/216/82 61/217/80 54/218/71
f 56/193/74 63/219/83 62/216/82 55/194/73
f 57/220/68 64/221/77 63/222/84 56/223/75
f 58/224/76 65/225/85 71/226/86 64/227/77
f 59/228/78 66/229/87 65/230/85 58/231/76
f 60/232/79 67/233/88 66/234/87 59/235/78
f 61/213/80 68/236/89 67/237/90 60/214/81
f 62/238/82 69/239/91 68/240/89 61/241/80
f 63/242/83 70/243/92 69/239/91 62/238/82
f 64/244/77 71/245/86 70/246/93 63/247/84
f 65/248/85 72/249/94 78/250/95 71/251/86
f 66/252/87 73/253/96 72/254/94 65/255/85
f 67/256/88 74/257/97 73/258/96 66/259/87
f 68/260/89 75/261/98 74/262/99 67/263/90
f 69/239/91 76/264/100 75/265/98 68/240/89
f 70/266/92 77/267/101 76/268/100 69/269/91
f 71/270/86 78/271/95 77/272/102 70/273/93
f 72/274/94 79/275/103 85/276/104 78/277/95
f 73/278/96 80/279/105 79/280/103 72/281/94
f 74/282/97 81/283/106 80/284/105 73/285/96
f 75/261/98 82/286/107 81/287/108 74/262/99
f 76/264/100 83/288/109 82/289/107 75/265/98
f 77/267/101 84/290/110 83/291/109 76/268/100
f 78/292/95 85/293/104 84/294/111 77/295/102
f 79/296/103 86/297/112 92/298/113 85/299/104
f 80/300/105 87/301/114 86/302/112 79/303/103
f 81/304/106 88/305/115 87/306/114 80/307/105
f 82/308/107 89/309/116 88/310/117 81/311/108
f 83/288/109 90/312/118 89/313/116 82/289/107
f 84/290/110 91/314/119 90/315/118 83/291/109
f 85/316/104 92/317/113 91/318/120 84/319/111
f 86/297/112 93/320/121 99/321/122 92/298/113
f 87/322/114 94/323/123 93/324/121 86/325/112
f 88/326/115 95/327/124 94/328/123 87/329/114
f 89/330/116 96/331/125 95/332/126 88/333/117
f 90/334/118 97/335/127 96/331/125 89/330/116
f 91/314/119 98/336/128 97/337/127 90/315/118
f 92/338/113 99/339/122 98/340/129 91/341/120
f 93/320/121 100/342/130 106/343/131 99/321/122
f 94/344/123 101/345/132 100/346/130 93/347/121
f 95/348/124 102/349/133 101/350/132 94/351/123
f 96/352/125 103/353/134 102/354/135 95/355/126
f 97/356/127 104/357/136 103/353/134 96/352/125
f 98/358/128 105/359/137 104/360/136 97/361/127
f 99/362/122 106/363/131 105/364/138 98/365/129
f 100/342/130 107/366/139 113/367/140 106/343/131
f 101/368/132 108/369/141 107/370/139 100/371/130
f 102/372/133 109/373/142 108/374/141 101/375/132
f 103/376/134 110/377/143 109/378/144 102/379/135
f 104/380/136 111/381/145 110/377/143 103/376/134
f 105/382/137 112/383/146 111/384/145 104/385/136
f 106/386/131 113/387/140 112/388/147 105/389/138
f 107/390/139 114/391/148 120/392/149 113/393/140
f 108/394/141 115/395/150 114/396/148 107/397/139
f 109/398/142 116/399/151 115/400/150 108/401/141
f 110/402/143 117/403/152 116/404/153 109/405/144
f 111/406/145 118/407/154 117/403/152 110/402/143
f 112/408/146 119/409/155 118/410/154 111/411/145
f 113/412/140 120/413/149 119/414/156 112/415/147
f 114/416/148 121/417/157 127/418/158 120/419/149
f 115/420/150 122/421/159 121/422/157 114/423/148
f 116/424/151 123/425/160 122/426/159 115/427/150
f 117/428/152 124/429/161 123/430/162 116/431/153
f 118/432/154 125/433/163 124/434/161 117/435/152
f 119/436/155 126/437/164 125/433/163 118/432/154
f 120/438/149 127/439/158 126/440/165 119/441/156
f 121/442/157 128/443/166 134/444/167 127/445/158
f 122/446/159 129/447/168 128/448/166 121/449/157
f 123/450/160 130/451/169 129/452/168 122/453/159
f 124/454/161 131/455/170 130/456/171 123/457/162
f 125/458/163 132/459/172 131/455/170 124/454/161
f 126/460/164 133/461/173 132/459/172 125/458/163
f 127/462/158 134/463/167 133/464/174 126/465/165
f 128/466/166 135/467/175 141/468/176 134/469/167
f 129/470/168 136/471/177 135/472/175 128/473/166
f 130/474/169 137/475/178 136/476/177 129/477/168
f 131/478/170 138/479/179 137/480/180 130/481/171
f 132/482/172 139/483/181 138/479/179 131/478/170
f 133/484/173 140/485/182 139/486/181 132/487/172
f 134/488/167 141/489/176 140/490/183 133/491/174
f 135/492/175 142/493/184 148/494/185 141/495/176
f 136/496/177 143/497/186 142/498/184 135/499/175
f 137/500/178 144/501/187 143/502/186 136/503/177
f 138/504/179 145/505/188 144/506/189 137/507/180
f 139/508/181 146/509/190 145/505/188 138/504/179
f 140/510/182 147/511/191 146/509/190 139/508/181
f 141/489/176 148/512/185 147/513/192 140/490/183
f 142/514/184 149/515/193 148/516/185
f 143/517/186 149/518/193 142/519/184
f 144/520/187 149/521/193 143/522/186
f 145/523/188 149/524/194 144/525/189
f 146/526/190 149/527/194 145/528/188
f 147/529/191 149/527/194 146/526/190
f 148/512/185 149/530/193 147/513/192
f 151/531/195 169/532/195 150/533/195
f 152/534/195 169/532/195 151/531/195
f 152/534/195 168/535/195 169/532/195
f 153/536/195 168/535/195 152/534/195
f 155/537/195 153/536/195 154/538/195
f 155/537/195 168/535/195 153/536/195
f 155/537/195 167/539/195 168/535/195
f 155/537/195 166/540/195 167/539/195
f 156/541/195 166/540/195 155/537/195
f 156/541/195 165/542/195 166/540/195
f 157/543/195 165/542/195 156/541/195
f 157/543/195 163/544/195 165/542/195
f 163/544/195 164/545/195 165/542/195
f 158/546/195 163/544/195 157/543/195
f 159/547/195 163/544/195 158/546/195
f 159/547/195 162/548/195 163/544/195
f 159/547/195 161/549/195 162/548/195
f 160/550/195 161/549/195 159/547/195
f 183/551/196 185/552/196 184/553/196
f 182/554/196 185/552/196 183/551/196
f 181/555/196 185/552/196 182/554/196
f 179/556/196 181/555/196 180/557/196
f 181/555/196 186/558/196 185/552/196
f 179/556/196 186/558/196 181/555/196
f 179/556/196 187/559/196 186/558/196
f 179/556/196 188/560/196 187/559/196
f 178/561/196 188/560/196 179/556/196
f 177/562/196 188/560/196 178/561/196
f 177/562/196 189/563/196 188/560/196
f 177/562/196 171/564/196 189/563/196
f 171/564/196 170/565/196 189/563/196
f 176/566/196 171/564/196 177/562/196
f 175/567/196 171/564/196 176/566/196
f 175/567/196 172/568/196 171/564/196
f 174/569/196 173/570/196 175/567/196
f 173/570/196 172/568/196 175/567/196
f 170/571/197 190/572/197 209/573/197 189/574/197
f 171/575/198 191/576/199 190/577/200 170/578/198
f 172/579/201 192/580/202 191/581/203 171/582/203
f 173/583/204 193/584/205 192/580/202 172/579/201
f 174/585/206 194/586/207 193/587/208 173/588/206
f 175/589/209 195/590/209 194/591/209 174/592/209
f 176/593/210 196/594/211 195/595/212 175/596/210
f 177/597/213 197/598/214 196/599/215 176/600/215
f 178/601/216 198/602/217 197/598/214 177/597/213
f 179/603/218 199/604/219 198/605/220 178/606/218
f 180/607/221 200/608/221 199/609/221 179/610/221
f 181/611/222 201/612/223 200/613/224 180/614/222
f 182/615/225 202/616/226 201/612/227 181/611/227
f 183/617/228 203/618/229 202/616/226 182/615/225
f 184/619/230 204/620/231 203/621/232 183/622/230
f 185/623/233 205/624/233 204/625/233 184/626/233
f 186/627/234 206/628/235 205/629/236 185/630/234
f 187/631/237 207/632/238 206/628/239 186/627/239
f 188/633/240 208/634/241 207/632/238 187/631/237
f 189/635/242 209/636/243 208/637/244 188/635/242
f 190/572/245 210/638/246 229/639/247 209/573/245
f 191/576/199 211/640/248 210/641/249 190/577/200
f 192/580/202 212/642/250 211/643/251 191/581/252
f 193/584/205 213/644/253 212/642/250 192/580/202
f 194/586/207 214/645/254 213/646/255 193/587/208
f 195/590/256 215/647/257 214/648/258 194/591/256
f 196/649/211 216/650/259 215/651/260 195/652/212
f 197/598/214 217/653/261 216/654/262 196/599/263
f 198/602/217 218/655/264 217/653/261 197/598/214
f 199/604/219 219/656/265 218/657/266 198/605/220
f 200/608/267 220/658/268 219/659/269 199/609/267
f 201/660/223 221/661/270 220/662/271 200/663/224
f 202/664/226 222/665/272 221/666/273 201/667/274
f 203/618/229 223/668/275 222/669/272 202/616/226
f 204/620/231 224/670/276 223/671/277 203/621/232
f 205/624/278 225/672/279 224/673/280 204/625/278
f 206/674/235 226/675/281 225/676/282 205/677/236
f 207/678/238 227/679/283 226/680/284 206/681/285
f 208/634/241 228/682/286 227/683/283 207/632/238
f 209/636/243 229/684/287 228/685/288 208/637/244
f 210/638/246 230/686/289 249/687/290 229/639/247
f 211/640/248 231/688/291 230/689/292 210/641/249
f 212/690/250 232/691/293 231/692/294 211/693/251
f 213/646/253 233/694/295 232/691/293 212/690/250
f 214/645/254 234/695/296 233/694/297 213/646/255
f 215/647/257 235/696/298 234/697/299 214/648/258
f 216/650/259 236/698/300 235/699/301 215/651/260
f 217/653/261 237/700/302 236/701/303 216/654/262
f 218/655/264 238/702/304 237/700/302 217/653/261
f 219/656/265 239/703/305 238/704/306 218/657/266
f 220/658/268 240/705/307 239/706/308 219/659/269
f 221/666/270 241/707/309 240/708/310 220/709/271
f 222/665/272 242/710/311 241/707/312 221/666/273
f 223/711/275 243/712/313 242/710/311 222/665/272
f 224/670/276 244/713/314 243/714/315 223/671/277
f 225/672/279 245/715/316 244/716/317 224/673/280
f 226/675/281 246/717/318 245/718/319 225/676/282
f 227/679/283 247/719/320 246/720/321 226/680/284
f 228/721/286 248/722/322 247/719/320 227/679/283
f 229/684/287 249/723/323 248/724/324 228/685/288
f 230/686/289 250/725/325 269/449/326 249/687/290
f 231/688/291 251/726/327 250/727/328 230/689/292
f 232/691/293 252/728/329 251/729/330 231/692/294
f 233/694/295 253/730/331 252/728/329 232/691/293
f 234/695/296 254/731/332 253/730/333 233/694/297
f 235/696/298 255/732/334 254/733/335 234/697/299
f 236/698/300 256/734/336 255/735/337 235/699/301
f 237/736/302 257/737/338 256/738/339 236/739/303
f 238/704/304 258/740/340 257/741/338 237/742/302
f 239/703/305 259/743/341 258/740/342 238/704/306
f 240/705/307 260/744/343 259/745/344 239/706/308
f 241/707/309 261/746/345 260/747/346 240/708/310
f 242/710/311 262/748/347 261/746/348 241/707/312
f 243/712/313 263/749/349 262/748/347 242/710/311
f 244/713/314 264/750/350 263/751/351 243/714/315
f 245/715/316 265/752/352 264/753/353 244/716/317
f 246/717/318 266/754/354 265/755/355 245/718/319
f 247/719/320 267/756/356 266/757/357 246/720/321
f 248/722/322 268/758/358 267/756/356 247/719/320
f 249/723/323 269/759/359 268/760/360 248/724/324
f 250/761/325 270/762/361 289/763/362 269/764/326
f 251/726/327 271/765/363 270/766/364 250/727/328
f 252/767/329 272/768/365 271/769/366 251/770/330
f 253/730/331 273/771/367 272/772/365 252/728/329
f 254/731/332 274/773/368 273/771/369 253/730/333
f 255/732/334 275/774/370 274/775/371 254/733/335
f 256/734/336 276/776/372 275/777/373 255/735/337
f 257/737/338 277/778/374 276/779/375 256/738/339
f 258/740/340 278/780/376 277/781/374 257/741/338
f 259/743/341 279/782/377 278/780/378 258/740/342
f 260/783/343 280/784/379 279/785/380 259/786/344
f 261/746/345 281/787/381 280/788/382 260/747/346
f 262/748/347 282/789/383 281/787/384 261/746/348
f 263/749/349 283/790/385 282/789/383 262/748/347
f 264/750/350 284/791/386 283/792/387 263/751/351
f 265/752/352 285/793/388 284/794/389 264/753/353
f 266/757/354 286/795/390 285/796/391 265/797/355
f 267/756/356 287/798/392 286/795/393 266/757/357
f 268/758/358 288/799/394 287/798/392 267/756/356
f 269/759/359 289/800/395 288/801/396 268/760/360
f 270/762/361 290/802/397 309/803/398 289/763/362
f 271/765/363 291/804/399 290/805/400 270/766/364
f 272/768/365 292/806/401 291/807/402 271/769/366
f 273/771/367 293/808/403 292/809/401 272/772/365
f 274/773/368 294/810/404 293/808/405 273/771/369
f 275/811/370 295/812/406 294/813/407 274/814/371
f 276/776/372 296/815/408 295/816/409 275/777/373
f 277/778/374 297/817/410 296/818/411 276/779/375
f 278/819/376 298/820/412 297/817/410 277/778/374
f 279/782/377 299/821/413 298/822/414 278/780/378
f 280/784/379 300/823/415 299/824/416 279/785/380
f 281/787/381 301/825/417 300/826/418 280/788/382
f 282/789/383 302/827/419 301/825/420 281/787/384
f 283/790/385 303/828/421 302/827/419 282/789/383
f 284/791/386 304/829/422 303/830/423 283/792/387
f 285/831/388 305/832/424 304/833/425 284/834/389
f 286/795/390 306/835/426 305/836/427 285/796/391
f 287/798/392 307/837/428 306/835/429 286/795/393
f 288/801/394 308/838/430 307/839/428 287/840/392
f 289/800/395 309/841/431 308/838/432 288/801/396
f 290/802/397 310/842/433 329/843/434 309/803/398
f 291/804/399 311/844/435 310/845/436 290/805/400
f 292/809/401 312/846/437 311/847/438 291/848/402
f 293/808/403 313/849/439 312/846/437 292/809/401
f 294/850/404 314/851/440 313/852/441 293/853/405
f 295/854/406 315/855/442 314/856/443 294/857/407
f 296/815/408 316/858/444 315/859/445 295/816/409
f 297/817/410 317/860/446 316/861/447 296/818/411
f 298/822/412 318/862/448 317/863/446 297/864/410
f 299/821/413 319/865/449 318/862/450 298/822/414
f 300/866/415 320/867/451 319/868/452 299/869/416
f 301/825/417 321/870/453 320/871/454 300/826/418
f 302/872/419 322/873/455 321/874/456 301/875/420
f 303/876/421 323/877/457 322/873/455 302/872/419
f 304/829/422 324/878/458 323/879/459 303/830/423
f 305/832/424 325/880/460 324/881/461 304/833/425
f 306/835/426 326/882/462 325/883/463 305/836/427
f 307/839/428 327/884/464 326/885/465 306/886/429
f 308/838/430 328/887/466 327/884/464 307/839/428
f 309/888/431 329/889/467 328/890/468 308/891/432
f 310/842/433 330/892/469 349/893/470 329/843/434
f 311/894/435 331/895/471 330/896/472 310/897/436
f 312/846/437 332/898/473 331/899/474 311/847/438
f 313/849/439 333/900/475 332/898/473 312/846/437
f 314/851/440 334/901/476 333/902/477 313/852/441
f 315/855/442 335/903/478 334/904/479 314/856/443
f 316/858/444 336/905/480 335/906/481 315/859/445
f 317/863/446 337/907/482 336/908/483 316/909/447
f 318/862/448 338/910/484 337/907/482 317/863/446
f 319/911/449 339/912/485 338/913/486 318/914/450
f 320/867/451 340/915/487 339/916/488 319/868/452
f 321/870/453 341/917/489 340/918/490 320/871/454
f 322/919/455 342/920/491 341/921/492 321/922/456
f 323/879/457 343/923/493 342/920/491 322/919/455
f 324/878/458 344/924/494 343/923/495 323/879/459
f 325/880/460 345/925/496 344/926/497 324/881/461
f 326/882/462 346/927/498 345/928/499 325/883/463
f 327/884/464 347/929/500 346/930/501 326/885/465
f 328/887/466 348/931/502 347/929/500 327/884/464
f 329/889/467 349/932/503 348/933/504 328/890/468
f 330/892/469 350/934/505 369/935/506 349/893/470
f 331/895/471 351/936/507 350/937/508 330/896/472
f 332/898/473 352/938/509 351/939/510 331/899/474
f 333/900/475 353/940/511 352/938/509 332/898/473
f 334/901/476 354/941/512 353/942/513 333/902/477
f 335/943/478 355/944/514 354/945/515 334/946/479
f 336/947/480 356/948/516 355/949/517 335/950/481
f 337/907/482 357/951/518 356/952/519 336/908/483
f 338/910/484 358/953/520 357/951/518 337/907/482
f 339/912/485 359/954/521 358/955/522 338/913/486
f 340/915/487 360/956/523 359/957/524 339/916/488
f 341/917/489 361/958/525 360/959/526 340/918/490
f 342/920/491 362/960/527 361/961/528 341/921/492
f 343/923/493 363/962/529 362/960/527 342/920/491
f 344/924/494 364/963/530 363/962/531 343/923/495
f 345/925/496 365/964/532 364/965/533 344/926/497
f 346/927/498 366/966/534 365/967/535 345/928/499
f 347/929/500 367/968/536 366/969/537 346/930/501
f 348/931/502 368/970/538 367/968/536 347/929/500
f 349/932/503 369/971/539 368/972/540 348/933/504
f 350/973/505 370/974/541 389/975/542 369/976/506
f 351/936/507 371/977/543 370/978/544 350/937/508
f 352/938/509 372/979/545 371/980/546 351/939/510
f 353/940/511 373/981/547 372/979/545 352/938/509
f 354/982/512 374/983/548 373/984/549 353/985/513
f 355/944/514 375/986/550 374/987/551 354/945/515
f 356/948/516 376/988/552 375/989/553 355/949/517
f 357/951/518 377/990/554 376/991/555 356/952/519
f 358/953/520 378/992/556 377/990/554 357/951/518
f 359/954/521 379/993/557 378/994/558 358/955/522
f 360/995/523 380/996/559 379/997/560 359/998/524
f 361/958/525 381/999/561 380/1000/562 360/959/526
f 362/960/527 382/1001/563 381/1002/564 361/961/528
f 363/962/529 383/1003/565 382/1001/563 362/960/527
f 364/1004/530 384/1005/566 383/1006/567 363/1007/531
f 365/964/532 385/1008/568 384/1009/569 364/965/533
f 366/966/534 386/1010/570 385/1011/571 365/967/535
f 367/968/536 387/1012/572 386/1013/573 366/969/537
f 368/970/538 388/1014/574 387/1012/572 367/968/536
f 369/1015/539 389/1016/575 388/1017/576 368/1018/540
f 370/974/541 390/1019/577 409/1020/578 389/975/542
f 371/977/543 391/1021/579 390/1022/580 370/978/544
f 372/979/545 392/1023/581 391/1024/582 371/980/546
f 373/981/547 393/1025/583 392/1023/581 372/979/545
f 374/983/548 394/1026/584 393/1027/585 373/984/549
f 375/986/550 395/1028/586 394/1029/587 374/987/551
f 376/988/552 396/1030/588 395/1031/589 375/989/553
f 377/990/554 397/1032/590 396/1033/591 376/991/555
f 378/992/556 398/1034/592 397/1032/590 377/990/554
f 379/993/557 399/1035/593 398/1036/594 378/994/558
f 380/996/559 400/1037/595 399/1038/596 379/997/560
f 381/999/561 401/1039/597 400/1040/598 380/1000/562
f 382/1001/563 402/1041/599 401/1042/600 381/1002/564
f 383/1003/565 403/1043/601 402/1041/599 382/1001/563
f 384/1005/566 404/1044/602 403/1045/603 383/1006/567
f 385/1008/568 405/1046/604 404/1047/605 384/1009/569
f 386/1010/570 406/1048/606 405/1049/607 385/1011/571
f 387/1012/572 407/1050/608 406/1051/609 386/1013/573
f 388/1014/574 408/1052/610 407/1050/608 387/1012/572
f 389/1016/575 409/1053/611 408/1054/612 388/1017/576
f 390/1055/577 410/1056/613 429/1057/614 409/1058/578
f 391/1021/579 411/1059/615 410/1060/616 390/1022/580
f 392/1061/581 412/1062/617 411/1063/618 391/1064/582
f 393/1065/583 413/1066/619 412/1062/617 392/1061/581
f 394/1026/584 414/1067/620 413/1068/621 393/1027/585
f 395/1069/586 415/1070/622 414/1071/623 394/1072/587
f 396/1030/588 416/1073/624 415/1074/625 395/1031/589
f 397/1075/590 417/1076/626 416/1073/627 396/1030/591
f 398/1077/592 418/1078/628 417/1076/626 397/1075/590
f 399/1035/593 419/1079/629 418/1080/630 398/1036/594
f 400/1081/595 420/1082/631 419/1083/632 399/1084/596
f 401/1085/597 421/1086/633 420/1087/634 400/1088/598
f 402/1089/599 422/1090/635 421/1086/636 401/1085/600
f 403/1091/601 423/1092/637 422/1090/635 402/1089/599
f 404/1044/602 424/1093/638 423/1094/639 403/1045/603
f 405/1095/604 425/1096/640 424/1097/641 404/1098/605
f 406/1048/606 426/1099/642 425/1100/643 405/1049/607
f 407/1101/608 427/1102/644 426/1103/645 406/1104/609
f 408/1105/610 428/1106/646 427/1102/644 407/1101/608
f 409/1053/611 429/1107/647 428/1108/648 408/1054/612
f 410/1109/613 150/1110/649 169/1111/649 429/1112/614
f 411/1059/615 151/1113/650 150/1114/650 410/1060/616
f 412/1062/617 152/1115/651 151/1116/652 411/1063/618
f 413/1066/619 153/1117/653 152/1115/651 412/1062/617
f 414/1067/620 154/1118/654 153/1119/654 413/1068/621
f 415/1070/622 155/1120/655 154/1121/655 414/1071/623
f 416/1073/624 156/1122/656 155/1123/656 415/1074/625
f 417/1124/626 157/1125/657 156/1126/658 416/1127/627
f 418/1128/628 158/1129/659 157/1125/657 417/1124/626
f 419/1079/629 159/1130/660 158/1131/660 418/1080/630
f 420/1082/631 160/1132/661 159/1133/661 419/1083/632
f 421/1086/633 161/1134/662 160/1135/662 420/1087/634
f 422/1090/635 162/1136/663 161/1134/664 421/1086/636
f 423/1092/637 163/1137/665 162/1136/663 422/1090/635
f 424/1093/638 164/1138/666 163/1139/666 423/1094/639
f 425/1096/640 165/1140/667 164/1141/667 424/1097/641
f 426/1103/642 166/1142/668 165/1143/668 425/1144/643
f 427/1102/644 167/1145/669 166/1142/670 426/1103/645
f 428/1106/646 168/1146/671 167/1145/669 427/1102/644
f 429/1107/647 169/1147/672 168/1148/672 428/1108/648
